<?xml version="1.0" standalone="no"?>
<!DOCTYPE svg PUBLIC "-//W3C//DTD SVG 20010904//EN"
 "http://www.w3.org/TR/2001/REC-SVG-20010904/DTD/svg10.dtd">
<svg version="1.0" xmlns="http://www.w3.org/2000/svg"
 width="2480.000000pt" height="3508.000000pt" viewBox="0 0 2480.000000 3508.000000"
 preserveAspectRatio="xMidYMid meet">

<g transform="translate(0.000000,3508.000000) scale(0.100000,-0.100000)"
fill="#000000" stroke="none">
<path d="M9840 29152 c-73 -36 -104 -92 -124 -225 -16 -105 -19 -113 -125
-270 -36 -54 -72 -108 -80 -120 -8 -12 -59 -62 -114 -112 -55 -49 -118 -107
-141 -129 -23 -21 -58 -50 -80 -65 -81 -55 -122 -81 -151 -97 -16 -9 -43 -27
-58 -40 -16 -13 -34 -24 -42 -24 -7 0 -19 -7 -26 -16 -13 -16 -70 -48 -139
-79 -19 -8 -42 -20 -50 -25 -8 -6 -37 -21 -65 -35 -27 -13 -61 -31 -75 -38
-54 -31 -156 -77 -168 -77 -7 0 -34 -11 -60 -25 -26 -14 -56 -25 -67 -25 -11
0 -34 -9 -52 -19 -17 -11 -51 -25 -75 -31 -23 -7 -59 -20 -78 -30 -20 -10 -58
-21 -85 -25 -28 -4 -70 -16 -95 -26 -25 -10 -96 -28 -158 -40 -109 -21 -114
-21 -168 -4 -115 36 -212 -3 -265 -107 -19 -38 -29 -73 -29 -102 0 -86 90
-210 159 -221 76 -12 77 -13 100 -69 35 -84 44 -173 38 -371 -4 -158 -9 -195
-36 -303 -17 -68 -37 -133 -45 -145 -8 -12 -17 -38 -21 -57 -4 -19 -18 -48
-31 -63 -13 -16 -24 -34 -24 -41 0 -17 -40 -52 -70 -61 -14 -4 -36 -16 -49
-26 -13 -11 -29 -19 -36 -19 -7 0 -32 -22 -54 -49 l-41 -49 0 -99 0 -100 54
-52 c46 -43 61 -51 93 -51 132 -2 367 -20 418 -33 33 -8 94 -18 135 -21 69 -6
178 -33 290 -72 25 -9 63 -20 85 -26 41 -11 134 -51 216 -94 26 -13 53 -24 60
-24 7 0 49 -25 94 -55 45 -30 86 -55 90 -55 5 0 18 -9 29 -19 12 -11 35 -30
53 -43 18 -13 65 -52 105 -87 70 -62 101 -98 213 -247 64 -85 95 -126 148
-194 24 -30 55 -80 69 -110 14 -30 42 -89 62 -131 20 -42 36 -83 36 -91 0 -9
7 -21 15 -28 8 -7 20 -31 27 -54 6 -22 20 -53 29 -67 10 -14 21 -38 25 -54 4
-16 15 -43 25 -60 10 -16 20 -52 24 -80 4 -27 18 -82 31 -122 13 -39 24 -83
24 -97 0 -14 9 -48 20 -75 11 -28 24 -81 30 -117 6 -37 17 -79 26 -95 8 -17
18 -81 24 -151 5 -68 16 -154 24 -193 8 -38 17 -101 21 -140 3 -38 13 -133 21
-210 8 -77 18 -222 22 -323 8 -201 7 -203 -52 -158 -63 49 -162 142 -186 174
-14 19 -48 61 -76 95 -51 62 -65 85 -104 164 -11 23 -25 45 -30 48 -5 3 -19
25 -30 48 -11 23 -32 60 -45 82 -24 40 -57 96 -105 181 -14 24 -103 198 -199
387 -95 188 -199 392 -231 452 -32 61 -80 152 -107 203 -26 51 -59 114 -73
140 -21 41 -61 105 -117 187 -7 11 -31 47 -53 80 -49 76 -78 116 -112 162 -16
20 -28 40 -28 45 0 16 -125 171 -215 267 -44 46 -155 142 -256 221 -43 33
-121 76 -167 91 -20 7 -48 20 -62 30 -43 30 -235 69 -340 69 l-93 0 -53 -52
c-47 -48 -53 -59 -59 -110 -4 -31 -4 -61 -1 -67 8 -13 -11 -478 -24 -586 -6
-44 -17 -177 -25 -295 -8 -118 -21 -258 -29 -310 -8 -52 -17 -149 -21 -215 -3
-66 -15 -151 -25 -190 -10 -38 -23 -113 -30 -165 -6 -52 -17 -117 -25 -145 -8
-27 -19 -90 -25 -140 -5 -49 -15 -106 -20 -125 -6 -19 -17 -70 -25 -112 -8
-42 -21 -87 -29 -100 -8 -13 -20 -44 -26 -70 -8 -29 -18 -48 -29 -50 -32 -7
-123 11 -148 29 -14 10 -33 23 -42 28 -9 6 -30 22 -47 36 -18 15 -36 28 -41
30 -11 5 -73 86 -73 96 0 5 -13 29 -28 54 -38 58 -68 163 -81 274 -14 125 0
406 23 460 10 22 22 67 27 100 10 63 35 135 74 220 109 234 130 270 202 353
41 48 81 101 89 117 8 17 24 46 35 65 21 39 25 113 9 170 -5 20 -28 54 -50 75
l-41 40 -88 0 c-80 0 -90 -2 -118 -26 -29 -25 -35 -26 -83 -17 -52 9 -128 45
-165 76 -11 10 -40 31 -65 48 -25 16 -46 31 -48 34 -1 3 -36 50 -76 103 -41
54 -78 112 -82 130 -3 18 -15 44 -25 59 -11 14 -19 32 -19 40 0 7 -14 40 -30
73 -16 33 -30 71 -30 85 0 14 -11 57 -25 95 -13 39 -25 80 -25 92 0 13 -9 55
-20 95 -11 40 -24 120 -30 178 -5 58 -14 143 -19 190 -13 111 -15 181 -6 260
4 39 2 89 -5 125 -6 33 -15 100 -19 148 l-8 89 -52 51 -51 52 -81 0 -80 0 -55
-57 c-48 -49 -54 -61 -54 -97 0 -23 -7 -58 -15 -78 -19 -44 -19 -109 -1 -160
13 -36 12 -42 -10 -83 -13 -25 -24 -52 -24 -60 0 -14 -47 -90 -108 -174 -27
-38 -72 -102 -92 -131 -25 -37 -54 -76 -71 -94 -9 -10 -59 -27 -123 -41 -94
-20 -114 -22 -153 -12 -24 7 -90 17 -146 22 -60 6 -118 18 -142 30 -86 41
-171 78 -194 85 -14 4 -45 18 -69 31 -25 13 -51 24 -57 24 -7 0 -19 7 -26 17
-8 9 -33 24 -55 35 -23 10 -47 25 -54 33 -7 8 -18 15 -25 15 -8 0 -27 11 -43
25 -17 14 -34 25 -40 25 -5 0 -26 14 -47 30 -21 17 -42 30 -47 30 -6 0 -22 9
-36 21 -47 36 -96 68 -127 82 -16 8 -39 24 -49 36 -11 11 -25 21 -32 21 -7 0
-26 11 -42 25 -17 14 -33 25 -37 25 -4 0 -23 14 -42 30 -18 17 -39 30 -45 30
-6 0 -20 8 -30 17 -11 10 -34 26 -53 38 -18 11 -78 50 -133 88 -54 37 -103 67
-107 67 -4 0 -23 11 -41 25 -18 14 -36 25 -41 25 -5 0 -80 36 -168 79 -130 64
-172 80 -225 86 -36 4 -94 17 -130 28 -43 14 -94 21 -150 21 -82 1 -86 0 -127
-33 -23 -18 -47 -47 -53 -65 -24 -65 -56 -119 -82 -138 -27 -19 -28 -22 -28
-122 0 -101 7 -126 37 -126 7 0 26 -14 41 -31 28 -31 30 -32 178 -45 82 -7
171 -20 198 -28 27 -9 59 -16 72 -16 29 0 231 -66 260 -85 11 -7 41 -19 65
-25 24 -7 51 -18 59 -25 8 -7 35 -22 60 -34 64 -31 102 -54 135 -79 15 -12 32
-22 37 -22 10 0 47 -27 103 -76 17 -14 91 -76 165 -137 75 -62 155 -128 178
-147 23 -19 80 -80 127 -135 46 -55 92 -110 103 -122 87 -97 263 -317 286
-358 33 -59 69 -117 117 -187 11 -15 19 -31 19 -36 0 -5 14 -26 30 -47 17 -21
30 -41 30 -46 0 -4 10 -24 23 -42 12 -19 31 -50 42 -68 11 -18 30 -49 42 -69
22 -36 84 -161 129 -260 14 -30 36 -76 50 -101 13 -26 24 -54 24 -62 0 -8 9
-25 19 -39 11 -13 24 -42 30 -65 6 -22 17 -46 25 -52 8 -6 19 -31 25 -55 6
-24 17 -49 25 -55 8 -7 18 -27 21 -44 4 -18 16 -51 26 -73 10 -23 23 -63 29
-90 6 -27 17 -58 24 -69 7 -11 18 -42 25 -70 6 -27 20 -72 31 -100 22 -59 45
-127 70 -211 10 -33 25 -74 33 -90 8 -16 18 -53 22 -83 4 -30 15 -78 25 -106
10 -28 21 -80 25 -115 4 -35 16 -87 25 -116 10 -29 21 -79 25 -111 4 -32 15
-85 25 -118 11 -33 24 -98 30 -145 6 -47 17 -125 25 -175 8 -49 19 -160 25
-245 5 -85 17 -191 26 -235 14 -69 15 -131 9 -440 -4 -239 -11 -384 -20 -430
-7 -38 -16 -101 -20 -140 -4 -38 -15 -104 -25 -145 -10 -41 -22 -106 -25 -145
-9 -91 -50 -269 -75 -320 -10 -22 -26 -61 -34 -87 -9 -27 -23 -69 -32 -95 -8
-27 -24 -66 -34 -88 -10 -22 -25 -60 -34 -85 -34 -104 -59 -166 -71 -180 -7
-8 -20 -31 -29 -50 -42 -90 -140 -236 -248 -369 -54 -68 -243 -254 -284 -282
-16 -10 -49 -35 -74 -54 -25 -19 -52 -38 -60 -42 -8 -3 -30 -19 -48 -35 -18
-15 -41 -28 -50 -28 -10 0 -33 -11 -52 -25 -19 -14 -39 -25 -46 -25 -6 0 -28
-11 -48 -25 -20 -14 -49 -28 -63 -32 -15 -3 -41 -14 -58 -24 -16 -10 -48 -21
-70 -25 -22 -3 -53 -14 -70 -22 -42 -22 -184 -60 -290 -78 -49 -8 -124 -21
-165 -29 -63 -12 -345 -35 -443 -35 -38 0 -110 -68 -125 -118 -23 -75 -9 -177
29 -218 11 -11 22 -45 27 -80 6 -37 23 -84 45 -124 20 -36 46 -85 57 -109 27
-57 225 -253 304 -301 31 -19 73 -47 93 -62 20 -16 41 -28 48 -28 7 0 24 -9
37 -20 14 -10 47 -24 73 -30 27 -6 60 -17 74 -25 24 -13 75 -33 191 -72 25 -8
70 -25 100 -38 30 -13 75 -26 100 -30 25 -4 90 -15 145 -25 55 -10 152 -23
215 -29 63 -6 140 -18 170 -26 70 -19 135 -19 313 0 78 8 219 19 313 24 128 8
184 15 225 30 30 11 83 25 118 30 35 6 73 17 85 25 13 8 45 21 72 29 27 9 67
25 89 36 21 12 46 21 53 21 8 0 27 11 44 25 16 14 35 25 42 25 7 0 21 10 32
21 10 12 33 28 49 36 90 42 273 232 327 341 l34 69 70 -59 c77 -66 148 -115
215 -147 24 -11 51 -25 59 -30 8 -5 31 -16 50 -25 19 -9 42 -20 50 -25 32 -20
171 -75 300 -118 25 -8 70 -25 100 -38 30 -12 78 -26 107 -29 28 -4 67 -13 86
-21 19 -8 65 -19 103 -25 38 -6 96 -19 129 -30 33 -10 91 -24 129 -30 38 -6
84 -17 101 -24 17 -7 119 -27 226 -44 169 -27 258 -36 551 -59 83 -7 140 17
181 76 31 44 32 50 32 141 -1 84 -4 100 -27 140 -47 79 -86 109 -157 121 -81
13 -221 85 -221 114 0 3 -44 59 -99 123 -54 65 -102 129 -106 142 -4 14 -16
36 -25 50 -10 14 -23 44 -29 66 -6 23 -18 47 -26 54 -8 7 -15 19 -15 28 0 14
-22 64 -86 197 -13 28 -24 61 -24 75 0 14 -9 45 -20 69 -11 24 -23 62 -26 85
-4 22 -17 67 -30 98 -13 32 -24 66 -24 77 0 11 -9 43 -20 72 -11 28 -25 85
-31 127 -5 43 -16 97 -24 121 -8 24 -20 82 -26 129 -6 48 -18 104 -25 126 -8
22 -19 96 -24 165 -6 69 -18 167 -27 216 -10 52 -17 141 -18 210 l0 120 25 -1
c57 -3 238 -38 280 -54 25 -10 70 -21 100 -25 30 -4 78 -16 105 -26 28 -11 81
-24 118 -29 38 -6 82 -17 99 -26 19 -10 76 -20 142 -25 61 -5 148 -14 194 -20
72 -10 91 -9 136 5 91 29 136 97 136 206 -1 121 -38 247 -99 330 -10 14 -30
44 -46 67 -30 46 -45 60 -230 215 -123 103 -166 134 -240 178 -64 38 -125 79
-125 86 0 3 13 23 28 43 15 20 33 47 40 61 7 14 26 45 42 70 17 25 37 61 46
80 9 19 27 48 40 63 13 16 24 34 24 42 0 7 6 18 14 24 11 10 15 -20 21 -191 9
-260 17 -291 98 -359 32 -27 64 -49 70 -49 7 0 37 -18 67 -40 30 -22 74 -49
97 -60 23 -11 45 -25 48 -30 3 -4 22 -14 43 -21 20 -6 53 -23 72 -35 19 -13
42 -24 51 -24 9 0 28 -9 42 -20 14 -12 41 -26 59 -32 18 -6 44 -19 58 -28 14
-10 43 -23 65 -30 22 -7 53 -21 70 -31 16 -11 37 -19 45 -19 8 0 42 -14 75
-30 33 -17 66 -30 75 -30 8 0 33 -12 55 -25 22 -14 49 -25 60 -25 11 0 38 -12
60 -25 22 -14 47 -25 55 -25 8 0 42 -14 75 -30 33 -16 67 -30 76 -30 9 0 27
-9 41 -19 13 -11 44 -24 68 -31 25 -7 52 -18 60 -25 8 -7 35 -19 60 -26 25 -7
56 -20 70 -30 14 -9 41 -20 60 -24 19 -4 55 -18 80 -31 25 -13 53 -24 63 -24
10 0 39 -11 65 -24 26 -13 63 -27 82 -31 19 -4 49 -15 65 -25 17 -10 46 -21
65 -25 19 -4 55 -18 80 -31 25 -13 54 -24 65 -24 11 0 41 -11 67 -25 26 -14
56 -25 66 -25 10 0 41 -11 67 -25 27 -13 63 -27 79 -31 17 -3 52 -17 78 -30
26 -13 55 -24 65 -24 10 0 38 -11 63 -24 25 -13 58 -26 74 -30 16 -4 43 -18
59 -32 16 -13 35 -24 43 -24 23 0 34 -43 44 -172 10 -124 -1 -401 -20 -508 -6
-30 -17 -100 -25 -155 -9 -55 -22 -120 -30 -145 -8 -25 -19 -83 -25 -129 -6
-47 -18 -103 -25 -125 -8 -23 -19 -66 -26 -95 -6 -30 -20 -72 -30 -95 -10 -23
-19 -52 -19 -66 0 -14 -12 -56 -25 -95 -14 -38 -25 -78 -25 -88 0 -22 -54
-167 -81 -219 -10 -20 -19 -43 -19 -50 0 -8 -9 -32 -21 -53 -11 -22 -27 -58
-34 -80 -22 -66 -66 -168 -85 -195 -46 -68 -97 -145 -118 -181 -19 -31 -40
-47 -107 -80 -46 -22 -89 -46 -95 -54 -7 -8 -20 -15 -29 -15 -9 0 -39 -11 -66
-24 -28 -12 -68 -26 -90 -30 -21 -4 -56 -16 -76 -26 -20 -11 -66 -24 -102 -30
-35 -5 -80 -16 -99 -24 -19 -8 -66 -20 -104 -27 -38 -6 -89 -19 -114 -29 -25
-10 -67 -20 -95 -24 -27 -4 -82 -18 -122 -32 -39 -13 -85 -24 -102 -24 -17 0
-54 -9 -83 -20 -29 -11 -84 -25 -121 -31 -38 -6 -85 -18 -105 -26 -21 -9 -75
-21 -122 -28 -47 -7 -121 -22 -164 -34 -44 -12 -93 -21 -111 -21 -17 0 -67
-11 -111 -24 -43 -13 -110 -27 -149 -31 -38 -4 -86 -14 -105 -22 -19 -8 -80
-21 -135 -29 -55 -8 -117 -21 -138 -29 -20 -8 -90 -20 -154 -25 -64 -6 -142
-17 -174 -25 -31 -8 -119 -22 -196 -30 -140 -14 -170 -24 -283 -86 -19 -10
-45 -19 -57 -19 -33 0 -101 -65 -113 -108 -13 -49 -12 -141 3 -175 7 -15 33
-45 59 -66 l48 -39 117 -7 c65 -3 174 -15 243 -26 69 -10 184 -23 255 -28 87
-6 147 -16 180 -29 28 -11 72 -23 100 -27 27 -4 62 -14 78 -22 16 -8 62 -21
103 -28 41 -8 87 -21 102 -29 15 -8 57 -19 92 -26 36 -6 85 -19 110 -29 25
-10 67 -22 95 -26 27 -4 61 -15 75 -25 14 -10 42 -21 63 -25 20 -4 47 -15 60
-25 12 -10 43 -23 67 -30 24 -7 55 -20 68 -31 14 -10 32 -19 41 -19 10 0 39
-11 67 -24 27 -13 67 -29 89 -36 22 -7 47 -18 55 -25 8 -8 29 -17 45 -20 17
-4 48 -18 70 -30 22 -12 54 -26 70 -30 17 -3 62 -24 100 -46 39 -21 89 -48
112 -59 23 -11 45 -25 48 -30 3 -5 25 -19 48 -30 90 -44 123 -63 142 -80 11
-10 31 -21 45 -25 14 -4 34 -15 45 -25 11 -10 36 -25 55 -34 19 -9 60 -32 90
-51 30 -19 62 -37 70 -41 40 -18 141 -83 192 -124 32 -25 88 -69 125 -98 37
-29 98 -76 135 -105 36 -29 98 -77 138 -107 154 -119 271 -223 414 -366 81
-82 156 -160 164 -174 9 -14 59 -77 112 -140 105 -128 140 -174 140 -189 0 -5
11 -22 24 -38 13 -15 31 -41 40 -58 9 -16 30 -50 46 -75 34 -52 110 -202 110
-217 0 -6 9 -21 19 -35 11 -13 23 -38 27 -54 4 -16 15 -41 26 -56 10 -14 23
-49 28 -77 5 -28 16 -63 24 -79 8 -15 17 -50 21 -77 4 -28 16 -70 26 -95 14
-32 22 -85 29 -191 15 -237 29 -290 93 -346 65 -57 229 -57 294 0 64 56 78
109 93 341 6 103 15 164 28 200 11 28 27 80 37 116 36 141 51 187 66 211 9 13
19 37 23 53 4 16 16 41 27 54 10 14 19 29 19 35 0 15 76 165 110 217 16 25 37
59 46 75 9 17 24 39 34 50 9 11 29 43 45 70 16 28 72 102 125 165 52 63 103
126 112 140 8 14 83 92 164 174 143 143 260 247 414 366 40 30 102 78 138 107
37 29 98 76 135 105 37 29 94 74 126 99 31 26 75 57 97 69 21 12 57 32 79 45
66 40 134 79 175 100 21 11 46 27 56 36 11 9 30 20 44 24 14 4 34 15 45 25 19
17 52 36 142 80 23 11 45 25 48 30 3 5 25 19 48 30 23 11 74 38 112 59 39 22
84 43 100 46 17 4 48 18 70 30 22 12 54 26 70 30 17 3 37 12 45 20 8 7 33 18
55 25 22 7 62 23 89 36 28 13 57 24 67 24 9 0 27 9 41 19 13 11 44 24 68 31
25 7 52 18 60 25 8 7 33 18 55 24 22 7 56 21 76 31 19 11 55 22 80 26 24 4 65
15 90 25 25 10 75 23 110 29 35 6 76 18 91 26 15 8 61 21 102 29 41 7 87 20
103 28 16 8 51 18 78 22 28 4 73 16 100 27 34 13 94 23 185 29 74 5 173 16
220 24 82 14 291 35 356 35 38 0 122 65 141 107 15 34 16 126 3 175 -12 43
-80 108 -113 108 -12 0 -38 9 -57 19 -113 62 -143 72 -283 86 -77 8 -165 22
-196 30 -32 8 -110 19 -175 25 -64 6 -134 17 -154 26 -20 8 -75 20 -122 26
-47 5 -110 18 -140 28 -30 11 -82 22 -115 25 -33 4 -98 17 -145 30 -47 13
-113 26 -147 30 -35 3 -86 14 -115 24 -29 10 -84 22 -123 26 -38 4 -92 15
-120 26 -27 10 -79 23 -115 28 -36 6 -89 20 -118 31 -29 11 -66 20 -83 20 -17
0 -63 11 -102 24 -40 14 -94 28 -122 32 -27 4 -70 14 -95 24 -25 10 -76 23
-114 29 -38 7 -85 19 -104 27 -19 8 -64 19 -99 24 -36 6 -79 18 -96 26 -16 9
-58 24 -91 34 -96 29 -165 56 -184 72 -9 8 -52 31 -95 52 -63 30 -81 44 -96
75 -11 20 -27 43 -35 50 -9 8 -16 17 -16 22 0 4 -20 37 -44 72 -42 61 -81 144
-111 232 -7 22 -23 58 -34 80 -12 21 -21 45 -21 53 0 7 -9 30 -19 50 -32 60
-81 199 -81 227 0 14 -7 40 -16 56 -8 17 -22 62 -30 101 -8 39 -21 82 -28 97
-8 14 -17 42 -20 61 -4 19 -16 64 -26 100 -11 36 -26 108 -34 160 -9 52 -22
120 -29 150 -8 30 -19 89 -25 130 -6 41 -16 96 -21 122 -19 89 -31 398 -20
522 11 128 21 166 43 166 8 0 27 11 43 24 16 14 43 28 59 32 16 4 49 17 74 30
25 13 53 24 63 24 10 0 39 11 65 24 26 13 61 27 78 30 16 4 52 18 79 31 26 14
57 25 67 25 10 0 40 11 66 25 26 14 56 25 67 25 11 0 40 11 65 24 25 13 61 27
80 31 19 4 49 15 65 25 17 10 46 21 65 25 19 4 56 18 82 31 26 13 55 24 65 24
10 0 38 11 63 24 25 13 61 27 80 31 19 4 46 15 60 24 14 10 45 23 70 30 25 7
52 19 60 26 8 7 35 19 60 25 25 7 57 21 71 31 15 10 33 19 41 19 7 0 40 14 73
30 33 16 67 30 75 30 8 0 33 11 55 25 22 13 49 25 60 25 11 0 34 8 50 19 17
10 48 24 70 31 22 7 60 23 85 36 25 13 52 24 60 24 8 0 29 8 46 19 17 10 41
22 55 26 21 7 133 60 214 102 17 9 41 21 55 28 14 6 34 17 45 23 11 6 36 18
55 27 46 20 117 61 183 108 30 20 59 37 65 37 5 0 37 22 69 49 81 68 89 99 98
359 6 171 10 201 21 191 8 -6 14 -17 14 -24 0 -7 14 -29 30 -50 17 -21 30 -41
30 -45 0 -5 18 -37 40 -71 22 -35 46 -75 52 -89 7 -14 25 -41 40 -61 15 -20
28 -40 28 -43 0 -7 -61 -48 -125 -86 -76 -44 -118 -76 -230 -171 -60 -52 -122
-102 -137 -112 -27 -17 -104 -107 -145 -169 -67 -102 -103 -221 -103 -341 0
-106 46 -174 136 -203 45 -14 64 -15 136 -5 46 6 133 15 194 20 66 5 123 15
142 25 17 9 61 20 99 26 37 5 91 18 118 29 28 10 75 22 105 26 30 4 75 15 100
25 42 16 223 51 280 54 25 1 25 0 28 -92 2 -56 -4 -129 -13 -180 -9 -48 -21
-145 -27 -217 -6 -71 -17 -155 -24 -185 -8 -30 -21 -98 -30 -150 -8 -52 -21
-115 -29 -140 -8 -25 -19 -79 -24 -122 -6 -42 -20 -99 -31 -127 -11 -29 -20
-61 -20 -72 0 -11 -11 -45 -24 -77 -13 -31 -26 -76 -30 -98 -3 -23 -15 -61
-26 -85 -11 -24 -20 -55 -20 -69 0 -14 -14 -52 -30 -85 -16 -33 -30 -67 -30
-76 0 -9 -7 -22 -15 -29 -8 -7 -20 -31 -26 -54 -6 -22 -19 -52 -29 -66 -9 -14
-20 -38 -24 -54 -4 -17 -15 -41 -25 -55 -10 -14 -22 -37 -26 -50 -7 -22 -170
-228 -228 -289 -35 -37 -129 -80 -198 -91 -71 -12 -110 -42 -157 -121 -23 -40
-26 -56 -27 -140 0 -91 1 -97 32 -141 41 -59 98 -83 181 -76 265 20 370 31
522 53 96 15 211 37 255 50 44 12 100 26 125 29 25 4 72 15 105 25 33 11 91
24 129 30 38 6 84 17 103 25 19 8 58 17 86 21 29 3 77 17 107 29 30 13 75 30
100 38 129 43 268 98 300 118 8 5 31 16 50 25 19 9 42 20 50 25 8 5 38 21 65
35 85 42 127 71 204 137 l75 64 34 -69 c54 -109 237 -299 327 -341 17 -8 39
-24 49 -36 11 -11 25 -21 32 -21 7 0 26 -11 42 -25 17 -14 36 -25 44 -25 7 0
32 -9 53 -21 22 -11 62 -27 89 -36 27 -8 59 -21 72 -29 12 -8 50 -19 85 -25
35 -5 88 -19 118 -30 41 -15 97 -22 225 -30 94 -5 235 -16 313 -24 178 -19
243 -19 313 0 30 8 107 20 170 25 63 6 162 20 220 30 58 11 123 22 145 25 22
4 65 17 95 30 30 13 75 30 100 38 116 39 167 59 191 72 14 8 47 19 74 25 26 6
59 20 73 30 13 11 30 20 37 20 7 0 28 12 48 28 20 15 62 43 93 62 78 47 275
242 305 302 13 26 40 78 60 115 21 41 38 89 42 122 4 32 14 63 26 75 38 41 52
143 29 218 -14 47 -87 118 -122 118 -96 0 -394 23 -451 35 -38 8 -110 21 -160
30 -106 17 -247 55 -290 77 -16 8 -48 19 -70 23 -22 3 -56 15 -75 24 -19 10
-71 35 -115 57 -44 21 -91 46 -104 56 -13 10 -32 18 -42 18 -10 0 -34 13 -52
30 -19 17 -38 30 -41 30 -4 0 -35 22 -69 48 -34 27 -70 53 -79 58 -28 15 -225
212 -276 275 -108 133 -206 279 -248 369 -9 19 -22 42 -29 50 -12 14 -37 76
-71 180 -9 25 -22 59 -30 75 -14 29 -41 104 -70 195 -8 25 -22 58 -29 73 -23
44 -73 254 -80 337 -4 41 -15 107 -25 147 -10 39 -22 105 -25 145 -4 40 -13
102 -20 138 -9 41 -16 192 -21 415 -6 304 -4 362 10 445 10 52 21 163 27 245
5 83 16 188 24 235 8 47 19 126 25 175 6 50 19 117 30 150 10 33 21 86 25 118
4 32 15 82 24 110 10 29 21 79 26 112 4 32 15 86 25 120 10 33 22 83 26 110 3
28 13 63 21 79 8 16 23 57 33 90 24 81 46 147 75 226 13 36 27 81 31 100 3 19
11 41 16 48 6 7 19 40 29 75 28 97 63 190 80 217 9 14 20 38 23 54 4 16 16 41
27 54 10 14 19 31 19 39 0 8 11 36 24 62 27 53 61 126 106 226 43 94 97 202
124 245 11 20 30 51 41 69 11 18 30 49 43 68 12 18 22 38 22 43 0 5 10 21 23
37 13 15 38 55 57 88 18 33 41 69 50 80 10 11 24 32 31 46 34 65 54 97 83 134
42 55 211 259 242 293 43 46 59 65 110 130 29 38 125 126 239 222 105 87 203
170 218 184 16 14 32 26 36 26 4 0 18 11 31 25 13 14 29 25 35 25 7 0 25 10
40 22 33 25 71 48 135 79 25 12 52 27 60 34 8 7 35 18 59 25 24 6 54 18 65 25
29 19 231 85 260 85 13 0 45 7 72 16 27 8 116 21 198 28 148 13 150 14 178 45
15 17 34 31 41 31 30 0 37 25 37 126 0 100 -1 103 -27 122 -27 19 -59 73 -83
138 -6 18 -30 47 -53 65 -41 33 -45 34 -127 33 -56 0 -107 -7 -150 -21 -36
-11 -94 -24 -130 -28 -53 -6 -95 -22 -225 -86 -88 -43 -163 -79 -168 -79 -5 0
-23 -11 -40 -24 -18 -13 -42 -27 -53 -30 -12 -4 -29 -15 -39 -26 -10 -11 -23
-20 -29 -21 -6 0 -38 -20 -71 -44 -33 -25 -76 -53 -96 -64 -19 -11 -41 -27
-48 -35 -8 -9 -19 -16 -27 -16 -7 0 -29 -13 -47 -30 -19 -16 -38 -30 -42 -30
-4 0 -20 -11 -37 -25 -16 -14 -35 -25 -42 -25 -7 0 -21 -10 -32 -21 -10 -12
-32 -28 -49 -36 -31 -14 -80 -46 -127 -82 -14 -12 -30 -21 -36 -21 -5 0 -26
-13 -47 -30 -21 -16 -42 -30 -47 -30 -6 0 -23 -11 -40 -25 -16 -14 -35 -25
-43 -25 -7 0 -18 -7 -25 -15 -7 -8 -31 -23 -54 -33 -22 -11 -47 -26 -55 -35
-7 -10 -19 -17 -26 -17 -6 0 -32 -11 -57 -24 -24 -13 -55 -27 -69 -31 -23 -7
-108 -44 -194 -85 -24 -12 -82 -24 -142 -30 -56 -5 -122 -15 -146 -22 -39 -10
-59 -8 -153 12 -64 14 -114 31 -123 41 -17 18 -46 57 -71 94 -20 29 -65 93
-92 131 -61 84 -108 160 -108 174 0 8 -11 35 -24 60 -22 42 -23 48 -10 79 18
44 18 119 -1 164 -8 20 -15 55 -15 78 0 36 -6 48 -54 97 l-55 57 -80 0 -81 0
-51 -52 -52 -51 -8 -84 c-4 -46 -13 -119 -20 -163 -9 -57 -10 -95 -3 -130 16
-79 -25 -512 -60 -640 -21 -75 -45 -172 -62 -245 -8 -35 -23 -78 -33 -95 -10
-16 -24 -46 -30 -66 -6 -20 -20 -53 -31 -74 -11 -22 -20 -44 -20 -51 0 -6 -34
-56 -75 -110 -41 -54 -76 -101 -77 -104 -2 -3 -23 -18 -48 -34 -25 -17 -54
-38 -65 -48 -37 -31 -113 -67 -165 -76 -48 -9 -54 -8 -83 17 -28 24 -38 26
-118 26 l-88 0 -41 -40 c-22 -21 -45 -55 -50 -75 -15 -55 -12 -131 8 -167 9
-17 27 -49 39 -71 13 -22 51 -73 86 -114 65 -76 117 -148 117 -163 0 -5 14
-38 31 -74 101 -214 116 -252 125 -321 4 -30 16 -77 27 -105 26 -66 42 -350
26 -475 -12 -98 -53 -243 -73 -259 -8 -7 -20 -26 -27 -44 -13 -33 -68 -109
-82 -116 -5 -2 -23 -15 -41 -30 -17 -14 -38 -30 -47 -36 -9 -5 -28 -18 -42
-28 -14 -10 -52 -22 -83 -26 -49 -7 -60 -5 -75 10 -11 11 -19 27 -19 37 0 10
-9 36 -21 57 -11 22 -26 74 -34 115 -8 41 -19 91 -25 110 -5 19 -15 76 -20
125 -6 50 -17 113 -25 140 -8 28 -19 91 -25 140 -6 50 -19 126 -30 170 -10 44
-22 132 -25 195 -4 63 -13 160 -21 215 -8 55 -21 195 -29 310 -8 116 -19 246
-24 290 -14 104 -33 573 -25 586 3 6 3 36 -1 67 -6 51 -12 62 -59 110 l-53 52
-93 0 c-105 0 -297 -39 -340 -69 -14 -10 -42 -23 -62 -30 -79 -26 -130 -60
-286 -188 -122 -100 -277 -269 -332 -362 -14 -23 -36 -57 -50 -76 -37 -51 -67
-93 -110 -160 -22 -33 -46 -69 -53 -80 -56 -82 -96 -146 -117 -187 -14 -26
-47 -89 -73 -140 -27 -51 -75 -142 -107 -203 -32 -60 -136 -264 -231 -452 -96
-189 -185 -363 -199 -387 -48 -85 -81 -141 -105 -181 -13 -22 -34 -59 -45 -82
-11 -23 -25 -45 -30 -48 -5 -3 -19 -25 -30 -48 -39 -79 -53 -102 -104 -164
-28 -34 -62 -76 -76 -95 -24 -32 -123 -125 -186 -174 -58 -44 -58 -43 -50 170
3 107 11 230 16 273 6 43 15 132 21 198 5 66 17 151 25 190 8 38 19 125 24
193 6 70 16 134 24 151 9 16 20 58 26 95 6 36 19 88 29 114 10 26 22 70 26 97
4 28 14 66 22 85 8 19 19 62 24 95 6 33 18 78 29 100 10 22 21 51 25 65 4 14
15 36 25 50 9 14 20 38 24 54 4 17 16 42 27 57 10 15 19 33 19 40 0 7 15 44
34 83 19 39 47 98 62 131 15 33 47 85 71 115 53 68 84 109 148 194 28 37 70
93 95 124 57 73 195 196 290 259 14 9 61 41 106 70 44 29 86 53 93 53 7 0 34
11 60 24 82 43 175 83 216 94 22 6 60 17 85 26 115 40 223 66 316 75 56 6 115
16 130 22 16 6 121 15 234 21 l205 9 53 52 52 51 0 99 0 99 -41 49 c-22 27
-47 49 -54 49 -7 0 -23 8 -36 19 -13 10 -35 22 -49 26 -30 9 -70 44 -70 61 0
7 -11 25 -24 41 -13 15 -27 44 -31 63 -4 19 -13 45 -21 56 -7 12 -28 80 -45
150 -29 114 -33 149 -37 305 -5 192 5 282 39 365 23 56 24 57 100 69 68 10
159 135 159 219 0 69 -42 149 -98 187 -59 41 -120 48 -196 24 -54 -17 -59 -17
-168 4 -62 12 -133 30 -158 40 -25 10 -67 22 -95 26 -27 4 -65 15 -85 25 -19
10 -55 23 -78 30 -24 6 -58 20 -75 31 -18 10 -41 19 -52 19 -11 0 -38 10 -60
21 -22 12 -60 28 -86 35 -26 8 -52 21 -58 28 -7 8 -27 18 -44 22 -18 3 -43 14
-57 24 -14 9 -45 27 -70 38 -25 12 -52 26 -60 32 -8 5 -31 17 -50 25 -69 31
-126 63 -139 79 -7 9 -19 16 -26 16 -8 0 -26 11 -42 24 -15 13 -41 31 -58 40
-29 16 -70 42 -151 97 -22 15 -57 44 -80 65 -23 22 -86 80 -141 129 -55 50
-107 101 -116 115 -9 14 -29 44 -44 67 -16 22 -44 65 -64 95 -72 107 -80 126
-95 225 -20 133 -51 189 -124 225 -56 27 -108 35 -125 19 -6 -5 -28 -14 -50
-21 -73 -23 -119 -72 -148 -153 -14 -39 -28 -92 -32 -117 -3 -25 -14 -58 -24
-73 -33 -51 -100 -114 -138 -131 -21 -9 -58 -27 -83 -40 -25 -13 -67 -27 -95
-31 -27 -4 -79 -15 -114 -26 -86 -26 -227 -26 -312 1 -35 10 -83 22 -107 26
-55 9 -123 54 -141 95 -8 17 -33 51 -56 75 l-42 44 -86 0 -87 0 -94 -93 -93
-93 -6 -274 c-4 -151 -11 -300 -17 -330 -5 -30 -17 -112 -25 -182 -19 -157
-57 -265 -115 -320 -34 -33 -44 -37 -111 -44 -72 -6 -75 -8 -121 -55 -83 -84
-88 -179 -17 -269 22 -28 50 -55 62 -60 12 -5 97 -14 188 -20 92 -5 184 -16
206 -24 21 -7 68 -17 103 -21 152 -17 100 -31 -155 -41 -205 -7 -248 -22 -314
-105 -39 -50 -41 -54 -41 -123 1 -39 7 -107 16 -151 8 -44 21 -120 30 -170 8
-49 21 -96 29 -105 8 -9 20 -32 26 -51 7 -19 20 -45 29 -59 10 -14 21 -36 25
-50 12 -37 40 -74 145 -189 86 -94 133 -135 298 -256 30 -22 80 -60 111 -85
31 -25 78 -61 105 -80 69 -50 147 -121 157 -145 5 -11 18 -31 29 -45 19 -24
21 -40 21 -188 0 -169 -5 -220 -26 -262 -7 -14 -16 -48 -20 -75 -4 -28 -18
-83 -31 -124 -13 -40 -24 -83 -24 -95 0 -11 -11 -43 -25 -71 -13 -27 -25 -58
-25 -68 0 -10 -11 -40 -25 -67 -14 -27 -25 -55 -25 -63 0 -7 -9 -31 -20 -52
-11 -22 -25 -58 -31 -80 -6 -22 -16 -47 -23 -55 -7 -8 -34 -58 -60 -110 -43
-88 -114 -219 -161 -299 -11 -18 -40 -61 -65 -95 -50 -68 -93 -132 -106 -158
-5 -9 -59 -70 -120 -135 -166 -176 -168 -177 -194 -190 -14 -7 -45 -29 -70
-48 -25 -19 -56 -40 -70 -47 -14 -6 -35 -20 -47 -31 -12 -11 -52 -25 -90 -32
-37 -7 -83 -19 -100 -26 -28 -11 -38 -11 -65 0 -18 7 -64 19 -101 26 -38 7
-78 21 -90 32 -12 11 -33 25 -47 31 -14 7 -43 26 -65 43 -22 16 -56 40 -75 53
-19 13 -65 54 -101 92 -147 154 -204 216 -213 232 -10 19 -70 109 -101 152
-21 29 -39 55 -71 105 -28 43 -106 185 -164 300 -29 55 -58 111 -66 125 -7 14
-14 33 -14 42 0 9 -11 38 -25 64 -14 26 -25 53 -25 61 0 7 -11 36 -25 63 -14
27 -25 57 -25 67 0 10 -12 41 -25 68 -14 28 -25 60 -25 72 0 12 -11 55 -24 95
-13 40 -27 95 -31 123 -4 27 -14 63 -22 79 -19 36 -30 202 -23 338 4 82 8 100
28 120 12 14 22 29 22 35 0 13 91 97 156 143 27 19 74 55 105 80 31 25 81 63
111 85 165 121 212 162 298 256 105 115 133 152 145 189 4 14 15 36 25 50 10
14 21 36 25 50 4 14 16 37 27 53 11 16 25 64 33 115 8 48 21 123 29 167 9 44
15 112 16 151 0 69 -2 73 -41 123 -66 83 -109 98 -314 105 -255 10 -307 24
-155 41 35 4 82 14 103 21 33 12 262 34 356 34 28 0 43 9 79 46 24 26 50 62
58 80 31 74 6 163 -65 227 -33 30 -47 35 -111 41 -65 7 -76 11 -110 44 -58 55
-96 163 -115 320 -8 70 -20 152 -25 182 -6 30 -13 179 -17 330 l-6 275 -94 92
-93 93 -87 0 -86 0 -42 -44 c-23 -24 -48 -58 -56 -75 -18 -41 -86 -86 -141
-95 -24 -4 -72 -16 -107 -26 -85 -27 -226 -27 -312 -1 -35 11 -86 22 -114 26
-27 4 -70 18 -95 31 -25 13 -62 31 -83 40 -38 17 -105 80 -138 131 -10 15 -21
48 -24 73 -4 25 -18 78 -32 117 -29 81 -75 130 -148 153 -22 7 -44 16 -49 21
-18 16 -70 8 -126 -19z"/>
</g>
</svg>
