<?xml version="1.0" standalone="no"?>
<!DOCTYPE svg PUBLIC "-//W3C//DTD SVG 20010904//EN"
 "http://www.w3.org/TR/2001/REC-SVG-20010904/DTD/svg10.dtd">
<svg version="1.0" xmlns="http://www.w3.org/2000/svg"
 width="2480.000000pt" height="3508.000000pt" viewBox="0 0 2480.000000 3508.000000"
 preserveAspectRatio="xMidYMid meet">

<g transform="translate(0.000000,3508.000000) scale(0.100000,-0.100000)"
fill="#ffffff" stroke="none">
<path d="M9910 29150 c0 -5 -22 -21 -50 -35 -64 -32 -88 -79 -105 -200 -14
-99 -45 -171 -110 -255 -19 -25 -38 -52 -42 -60 -6 -13 -59 -87 -81 -115 -8
-9 -149 -139 -236 -218 -17 -15 -40 -36 -51 -47 -12 -11 -26 -20 -33 -20 -6 0
-27 -13 -45 -30 -19 -16 -38 -30 -42 -30 -7 0 -104 -61 -130 -82 -28 -22 -116
-78 -122 -78 -5 0 -24 -11 -43 -24 -19 -12 -52 -28 -72 -35 -20 -7 -42 -18
-48 -26 -6 -7 -24 -16 -39 -20 -16 -3 -43 -17 -62 -31 -18 -13 -40 -24 -49
-24 -9 0 -31 -11 -49 -24 -18 -13 -48 -27 -67 -31 -19 -3 -56 -17 -81 -31 -25
-13 -54 -24 -64 -24 -10 0 -39 -11 -65 -25 -26 -14 -54 -25 -63 -25 -9 0 -33
-9 -54 -20 -21 -11 -71 -27 -112 -35 -40 -7 -86 -20 -102 -28 -15 -8 -83 -24
-151 -37 -111 -22 -127 -23 -170 -10 -91 26 -129 25 -173 -5 -45 -32 -89 -110
-89 -160 0 -38 43 -119 80 -152 26 -23 36 -27 103 -38 36 -6 41 -11 68 -71 41
-89 52 -192 46 -403 -4 -143 -10 -197 -31 -291 -15 -63 -36 -133 -46 -155 -10
-22 -23 -56 -28 -75 -14 -55 -104 -180 -130 -180 -22 0 -101 -47 -139 -83 -32
-30 -33 -33 -33 -118 l0 -87 40 -40 c45 -45 38 -44 328 -57 67 -3 134 -10 148
-15 14 -6 81 -17 150 -25 69 -9 146 -24 172 -34 26 -10 67 -21 92 -25 25 -4
55 -14 68 -22 12 -8 46 -19 75 -24 28 -6 63 -18 77 -29 14 -10 43 -24 65 -31
22 -7 47 -18 55 -25 8 -7 26 -16 40 -20 14 -4 41 -17 60 -29 19 -13 55 -35 80
-51 25 -15 56 -36 70 -47 14 -10 42 -27 63 -38 20 -11 37 -24 37 -28 1 -4 38
-38 83 -77 77 -64 145 -140 207 -230 14 -20 40 -55 58 -78 148 -189 166 -219
259 -427 52 -115 75 -166 93 -205 50 -107 68 -157 75 -206 4 -30 15 -74 25
-99 10 -25 21 -65 25 -90 3 -25 17 -77 31 -117 13 -39 24 -83 24 -97 0 -14 9
-49 19 -78 12 -32 24 -104 30 -179 6 -70 17 -155 25 -190 8 -35 20 -122 26
-194 6 -71 15 -168 20 -215 5 -47 12 -176 16 -287 6 -183 6 -203 -9 -209 -32
-12 -89 17 -167 86 -98 87 -121 112 -214 235 -47 63 -71 102 -156 249 -14 24
-38 66 -53 92 -15 27 -39 67 -52 89 -13 22 -33 59 -45 81 -11 23 -27 47 -35
54 -8 7 -15 17 -15 23 0 9 -115 245 -140 287 -5 8 -27 53 -50 100 -41 84 -56
113 -85 168 -8 15 -26 50 -39 77 -14 28 -30 57 -36 65 -5 8 -17 31 -25 50 -9
19 -40 80 -69 135 -30 55 -75 142 -101 192 -25 51 -51 95 -56 99 -6 3 -15 16
-20 27 -5 12 -22 41 -37 63 -38 58 -162 245 -178 269 -8 11 -38 56 -68 100
-30 44 -83 110 -118 146 -34 37 -81 86 -104 110 -88 94 -295 240 -374 264 -14
4 -36 15 -50 25 -36 25 -241 71 -326 73 l-74 2 -46 -47 -47 -46 -3 -184 c-4
-216 -21 -508 -34 -593 -5 -33 -14 -143 -20 -245 -5 -102 -16 -221 -24 -266
-8 -44 -18 -141 -22 -215 -3 -74 -15 -168 -25 -209 -11 -41 -24 -115 -29 -165
-6 -49 -17 -110 -25 -135 -8 -25 -19 -86 -25 -135 -5 -50 -19 -126 -30 -169
-11 -44 -20 -91 -20 -105 0 -15 -9 -45 -20 -66 -11 -22 -25 -58 -31 -80 -21
-77 -48 -89 -155 -71 -43 8 -82 20 -88 28 -6 8 -22 21 -36 28 -53 27 -158 134
-178 180 -8 19 -23 45 -33 59 -27 33 -60 149 -74 261 -17 130 -5 438 19 495
10 22 24 75 31 117 8 42 21 90 29 107 9 16 16 36 16 42 0 11 22 59 127 274 25
52 53 90 136 182 26 29 47 60 47 68 0 7 11 26 25 41 29 31 39 77 32 142 -4 38
-12 53 -46 84 -37 35 -45 38 -100 38 -50 0 -65 -4 -91 -26 -29 -25 -36 -26
-103 -21 -55 4 -86 13 -129 37 -32 17 -58 35 -58 40 0 4 -13 13 -29 20 -37 15
-119 93 -155 146 -14 21 -44 64 -66 94 -22 30 -40 60 -40 66 0 6 -11 32 -25
58 -14 26 -25 52 -25 59 0 7 -11 33 -25 59 -13 25 -27 66 -31 90 -4 23 -15 63
-24 88 -10 25 -21 65 -25 90 -4 25 -13 68 -22 95 -13 46 -25 137 -54 420 -6
61 -8 157 -5 215 5 76 2 124 -9 175 -8 39 -15 93 -15 121 0 44 -5 58 -37 98
-41 50 -74 62 -144 53 -31 -4 -48 -15 -78 -49 -32 -36 -40 -52 -44 -98 -3 -30
-13 -70 -23 -89 -16 -32 -16 -36 6 -97 l22 -64 -24 -47 c-14 -27 -28 -60 -32
-75 -7 -32 -33 -74 -101 -166 -27 -37 -63 -87 -80 -112 -57 -85 -97 -135 -119
-146 -11 -7 -68 -22 -124 -35 -102 -22 -106 -22 -185 -6 -45 9 -118 19 -162
23 -55 5 -94 14 -125 30 -25 13 -50 24 -56 24 -7 0 -38 14 -69 30 -31 17 -65
30 -75 30 -10 0 -23 6 -29 14 -7 8 -33 22 -58 30 -26 9 -54 23 -64 32 -10 9
-31 23 -47 32 -76 43 -179 104 -228 136 -16 11 -65 42 -109 71 -44 28 -91 59
-105 68 -14 9 -52 35 -85 57 -33 21 -73 48 -90 60 -87 60 -103 70 -133 86 -17
9 -32 20 -32 24 0 5 -9 11 -19 15 -11 3 -35 18 -54 33 -19 15 -50 36 -68 47
-19 11 -49 30 -69 42 -19 12 -51 29 -70 38 -19 8 -44 21 -55 27 -11 6 -31 17
-45 23 -14 7 -38 20 -55 28 -16 9 -46 24 -65 32 -19 8 -53 24 -75 35 -22 11
-74 24 -115 29 -41 6 -95 17 -120 26 -25 9 -76 19 -115 22 -67 5 -72 3 -112
-27 -29 -21 -46 -43 -53 -68 -16 -54 -53 -116 -78 -127 -20 -9 -22 -17 -22
-97 0 -70 3 -88 14 -88 8 0 26 -14 39 -32 l25 -31 153 -13 c85 -8 165 -18 179
-24 14 -6 59 -17 100 -24 84 -16 207 -56 261 -86 20 -11 43 -20 50 -20 19 0
141 -62 174 -89 15 -11 33 -21 39 -21 17 0 151 -90 195 -130 15 -14 49 -43 76
-65 27 -22 57 -47 66 -55 9 -8 31 -26 49 -40 18 -14 47 -37 64 -52 17 -15 50
-42 74 -62 44 -36 99 -95 192 -206 30 -36 64 -75 75 -87 11 -12 29 -33 40 -48
11 -15 30 -39 42 -54 114 -135 193 -234 193 -242 0 -6 8 -22 19 -37 49 -73 81
-122 126 -202 14 -25 39 -65 55 -90 30 -47 64 -102 90 -149 9 -15 26 -40 38
-56 12 -15 22 -33 22 -39 0 -6 11 -31 24 -56 13 -25 27 -56 31 -70 4 -14 15
-36 25 -50 9 -14 20 -38 24 -54 4 -16 16 -40 26 -53 10 -13 22 -38 26 -56 3
-18 15 -43 25 -56 11 -13 19 -28 19 -34 0 -10 26 -68 86 -192 13 -28 24 -56
24 -63 0 -7 9 -30 19 -50 11 -21 23 -56 27 -77 3 -22 15 -56 24 -75 10 -19 23
-59 29 -88 6 -29 17 -63 25 -75 7 -12 19 -47 26 -77 7 -30 19 -64 26 -75 7
-11 18 -45 25 -75 6 -30 18 -65 26 -78 8 -13 20 -58 28 -100 7 -42 18 -90 24
-105 6 -16 16 -61 22 -100 5 -40 19 -99 29 -132 10 -33 22 -85 25 -115 3 -30
15 -82 25 -115 10 -33 26 -118 35 -189 9 -71 18 -133 21 -137 2 -4 11 -96 19
-204 8 -108 22 -236 31 -284 14 -74 15 -133 10 -411 -4 -179 -11 -361 -17
-405 -21 -182 -37 -293 -52 -350 -8 -33 -18 -91 -22 -130 -9 -96 -52 -278 -81
-346 -13 -31 -24 -63 -24 -70 0 -8 -12 -36 -25 -64 -14 -27 -25 -57 -25 -67 0
-9 -11 -40 -25 -70 -14 -29 -25 -60 -25 -68 0 -8 -12 -37 -25 -65 -14 -27 -25
-56 -25 -63 0 -8 -17 -43 -37 -78 -56 -95 -86 -147 -106 -183 -10 -18 -46 -69
-80 -112 -34 -44 -70 -92 -79 -107 -33 -51 -245 -258 -303 -296 -17 -11 -36
-26 -43 -33 -8 -7 -23 -18 -34 -24 -11 -6 -27 -17 -36 -25 -45 -40 -98 -75
-121 -81 -14 -3 -35 -13 -46 -23 -11 -10 -37 -23 -57 -29 -20 -7 -42 -18 -48
-26 -6 -8 -28 -19 -48 -26 -20 -6 -47 -18 -59 -25 -12 -8 -50 -20 -83 -28 -34
-8 -71 -21 -83 -29 -12 -8 -47 -20 -77 -26 -30 -6 -75 -18 -100 -26 -25 -8
-92 -21 -150 -29 -58 -9 -127 -20 -153 -25 -26 -6 -133 -15 -238 -20 l-191 -9
-34 -33 c-61 -59 -69 -166 -19 -240 16 -22 28 -57 32 -90 4 -32 19 -77 40
-114 18 -33 44 -82 59 -109 14 -27 73 -96 133 -155 98 -97 126 -119 200 -160
15 -7 35 -21 46 -31 41 -35 143 -80 285 -126 25 -8 61 -23 80 -33 19 -10 51
-22 70 -26 19 -4 58 -18 85 -31 28 -12 82 -28 120 -34 39 -6 87 -15 107 -21
20 -5 102 -16 181 -24 79 -8 172 -21 208 -30 81 -19 154 -19 327 0 75 8 209
19 297 24 118 7 173 15 210 29 28 11 80 24 116 30 36 6 81 20 100 31 19 12 41
21 49 21 9 0 34 9 55 21 22 11 61 27 88 35 26 8 47 18 47 23 0 4 17 15 38 25
20 10 44 24 52 32 8 8 42 32 75 53 67 43 218 202 252 265 25 47 42 82 54 114
5 12 15 22 23 22 12 0 121 -85 176 -136 28 -27 105 -74 121 -74 9 0 27 -8 40
-18 13 -10 65 -37 114 -61 50 -24 106 -51 125 -61 19 -10 53 -22 75 -26 22 -4
60 -18 84 -31 24 -12 54 -23 65 -23 12 0 40 -9 61 -21 22 -11 67 -25 100 -30
33 -5 87 -18 120 -29 33 -11 94 -26 135 -34 73 -14 142 -30 265 -62 184 -47
350 -73 560 -90 99 -7 202 -18 230 -23 66 -12 127 11 166 64 25 33 29 48 29
104 0 53 -6 77 -30 126 -35 69 -74 100 -140 108 -58 8 -167 58 -203 94 -28 28
-147 174 -200 246 -36 47 -82 134 -91 172 -4 16 -16 40 -27 53 -10 14 -19 32
-19 40 0 8 -11 34 -24 56 -13 23 -26 55 -30 71 -4 17 -14 38 -23 47 -8 9 -22
47 -29 84 -8 37 -19 73 -24 80 -6 6 -17 40 -25 75 -14 60 -28 107 -75 254 -11
33 -25 95 -30 138 -6 43 -18 96 -25 118 -8 22 -19 78 -25 124 -6 46 -17 102
-25 125 -8 23 -19 104 -25 179 -6 75 -17 170 -24 211 -18 95 -29 305 -18 345
8 27 13 30 48 29 64 -1 245 -33 304 -54 30 -11 86 -24 124 -30 38 -6 81 -17
96 -25 15 -8 58 -19 96 -25 38 -6 92 -19 119 -29 28 -10 93 -21 145 -25 52 -4
128 -11 168 -17 57 -8 84 -8 117 2 64 19 84 39 105 101 18 54 18 59 0 159 -29
170 -95 269 -295 444 -31 28 -64 54 -73 59 -10 5 -27 19 -39 30 -51 48 -135
110 -171 126 -13 5 -38 21 -56 35 -18 14 -38 25 -44 25 -19 0 -52 42 -52 66 0
12 11 35 24 51 13 15 33 46 45 68 12 22 33 58 46 80 13 22 34 56 45 75 12 19
38 64 60 100 21 36 41 77 45 92 3 15 13 32 21 39 33 27 38 -5 46 -259 6 -217
10 -254 29 -304 12 -32 25 -58 30 -58 5 0 22 -13 39 -30 17 -17 39 -30 49 -30
11 0 30 -9 43 -20 42 -36 92 -69 134 -89 23 -11 45 -24 48 -29 3 -6 19 -13 35
-17 16 -3 43 -17 62 -31 18 -13 40 -24 50 -24 9 0 32 -10 51 -23 18 -13 49
-29 68 -35 18 -7 41 -18 49 -26 9 -7 34 -19 56 -26 22 -7 54 -21 71 -31 17
-11 38 -19 45 -19 8 0 41 -14 74 -30 33 -16 66 -30 73 -30 7 0 34 -11 60 -25
26 -14 54 -25 62 -25 8 0 33 -11 55 -25 22 -13 47 -25 55 -25 8 0 42 -14 75
-30 33 -16 67 -30 75 -30 8 0 33 -12 55 -25 22 -14 47 -25 55 -25 8 0 42 -14
75 -30 33 -16 66 -30 74 -30 7 0 28 -9 45 -19 17 -11 50 -24 74 -31 24 -6 58
-20 75 -31 18 -10 41 -19 52 -19 11 0 42 -11 70 -24 27 -13 70 -31 95 -39 117
-40 168 -59 201 -77 20 -11 45 -20 55 -20 10 0 41 -11 69 -23 27 -13 73 -32
100 -41 28 -10 75 -27 105 -37 30 -11 71 -28 90 -38 19 -10 51 -22 70 -26 19
-4 46 -14 58 -22 13 -8 45 -21 72 -29 26 -8 53 -21 61 -30 7 -8 27 -21 45 -29
41 -17 51 -48 63 -200 12 -157 -6 -519 -30 -582 -5 -13 -13 -62 -19 -110 -6
-49 -17 -108 -25 -133 -8 -25 -21 -91 -29 -148 -9 -56 -20 -110 -25 -120 -5
-9 -14 -44 -21 -77 -7 -33 -20 -78 -30 -100 -10 -22 -21 -62 -25 -90 -4 -27
-13 -62 -21 -77 -8 -15 -20 -56 -28 -90 -13 -60 -37 -127 -76 -213 -10 -22
-24 -58 -30 -80 -7 -22 -16 -45 -21 -51 -5 -6 -16 -31 -24 -55 -8 -24 -22 -57
-30 -74 -8 -16 -21 -46 -30 -65 -8 -19 -28 -55 -45 -80 -16 -25 -39 -61 -50
-80 -75 -127 -99 -150 -200 -190 -19 -7 -48 -24 -63 -37 -16 -13 -36 -23 -45
-23 -9 0 -40 -11 -67 -24 -28 -12 -68 -26 -90 -30 -21 -4 -55 -16 -75 -26 -19
-10 -58 -21 -85 -25 -28 -4 -83 -18 -123 -31 -40 -13 -84 -24 -97 -24 -14 0
-57 -11 -97 -24 -40 -14 -95 -27 -122 -31 -28 -4 -71 -15 -97 -25 -26 -11 -71
-22 -101 -26 -29 -4 -75 -15 -103 -25 -27 -11 -81 -24 -120 -30 -38 -6 -82
-18 -97 -25 -15 -8 -65 -19 -110 -25 -46 -6 -112 -19 -148 -30 -36 -10 -99
-23 -140 -28 -41 -6 -94 -17 -117 -25 -24 -8 -80 -20 -125 -26 -46 -6 -108
-19 -138 -29 -30 -10 -86 -22 -124 -26 -38 -4 -95 -15 -127 -25 -32 -10 -109
-24 -171 -29 -62 -6 -138 -18 -168 -26 -30 -8 -105 -19 -166 -25 -154 -14
-170 -18 -250 -60 -38 -21 -86 -41 -106 -45 -22 -4 -49 -20 -69 -41 -33 -34
-34 -38 -34 -116 0 -77 1 -81 30 -105 63 -52 69 -54 211 -63 77 -5 175 -16
219 -24 44 -9 149 -20 233 -26 102 -6 163 -15 183 -26 17 -8 64 -22 105 -29
41 -8 87 -21 102 -29 15 -8 50 -17 77 -21 28 -5 77 -18 110 -30 33 -12 81 -26
108 -29 26 -4 66 -16 90 -26 23 -10 65 -22 92 -25 28 -4 68 -18 91 -31 22 -13
49 -24 60 -24 10 0 37 -11 59 -25 22 -13 47 -25 55 -25 8 0 42 -14 75 -30 33
-16 67 -30 75 -30 9 0 26 -7 38 -16 12 -8 47 -24 77 -34 30 -10 65 -26 77 -34
12 -9 29 -16 38 -16 8 0 42 -14 75 -30 33 -16 65 -30 71 -30 15 0 156 -76 299
-161 28 -16 64 -36 82 -44 17 -8 35 -20 38 -26 4 -6 26 -19 49 -30 22 -11 66
-35 96 -54 30 -19 73 -44 95 -55 22 -11 65 -36 95 -55 30 -19 66 -39 79 -45
13 -6 39 -23 57 -38 18 -15 54 -43 80 -62 27 -19 55 -41 64 -48 26 -22 107
-86 132 -105 12 -9 55 -43 95 -75 40 -31 93 -73 120 -92 26 -19 55 -42 64 -50
9 -8 37 -31 63 -50 47 -35 366 -349 398 -392 25 -33 185 -229 207 -253 10 -11
26 -33 35 -50 20 -37 60 -98 104 -160 17 -25 32 -49 32 -54 0 -4 13 -25 29
-47 16 -22 33 -52 36 -66 4 -15 13 -32 21 -39 8 -6 19 -30 25 -52 6 -23 19
-52 30 -65 10 -14 19 -30 19 -37 0 -7 11 -32 24 -57 13 -24 29 -68 35 -97 6
-28 17 -64 25 -79 8 -15 17 -50 21 -77 4 -28 16 -69 26 -93 14 -32 21 -88 29
-215 12 -194 27 -251 78 -300 32 -31 36 -32 122 -32 87 0 90 1 122 33 52 49
66 105 78 299 8 127 15 183 29 215 10 24 22 65 26 93 4 27 13 62 21 77 8 15
19 51 25 79 6 29 22 73 35 97 13 25 24 50 24 57 0 7 9 23 19 37 11 13 24 42
30 65 6 22 17 46 25 52 8 7 17 24 21 39 4 15 17 41 29 57 13 17 31 44 40 60
16 28 23 40 70 111 11 16 32 49 47 74 16 25 37 56 48 70 27 35 184 226 229
279 60 71 271 280 347 343 39 32 79 66 91 76 11 9 42 33 68 52 26 19 79 61
119 92 40 32 83 66 95 75 13 10 44 34 68 53 24 19 54 43 66 52 39 29 112 86
144 112 17 14 42 30 55 36 13 6 49 26 79 45 30 19 73 44 95 55 22 11 65 36 95
55 30 18 74 42 96 53 23 11 45 25 48 31 4 6 22 18 39 26 18 8 55 28 82 44 143
85 284 161 299 161 6 0 38 14 71 30 33 16 67 30 75 30 9 0 26 7 38 16 12 8 47
24 77 34 30 10 65 26 77 34 12 9 29 16 38 16 8 0 42 14 75 30 33 16 67 30 75
30 8 0 33 11 55 25 22 13 49 25 59 25 11 0 38 11 60 24 23 13 64 27 91 31 28
4 70 15 95 25 25 11 74 24 110 30 35 7 77 18 92 26 16 8 54 19 86 25 31 5 77
18 102 28 25 10 67 22 94 26 28 4 72 16 100 27 35 13 93 22 195 29 80 5 182
16 226 25 44 8 142 19 219 24 142 9 148 11 211 63 29 24 30 28 30 105 0 78 -1
82 -34 116 -20 21 -47 37 -69 41 -20 4 -68 24 -106 45 -80 42 -96 46 -250 60
-61 6 -136 17 -166 25 -30 8 -106 20 -168 26 -62 5 -139 19 -171 29 -32 10
-89 21 -127 25 -38 4 -94 16 -124 26 -30 10 -92 23 -138 29 -45 6 -101 18
-123 25 -23 8 -86 22 -140 30 -55 8 -108 19 -119 25 -11 6 -64 17 -118 24 -54
8 -114 21 -134 29 -20 8 -67 20 -105 26 -37 6 -90 19 -118 30 -27 10 -74 21
-103 25 -30 4 -75 15 -101 26 -26 10 -69 21 -97 25 -27 4 -82 17 -122 31 -40
13 -84 24 -98 24 -14 0 -58 11 -97 24 -40 13 -94 27 -122 31 -27 4 -66 15 -85
25 -20 10 -54 22 -75 26 -22 4 -62 18 -90 30 -27 13 -58 24 -67 24 -9 0 -29
10 -45 23 -15 13 -44 30 -63 37 -85 34 -117 60 -160 128 -23 37 -54 85 -68
107 -14 22 -34 53 -44 68 -11 15 -26 46 -34 69 -8 23 -18 46 -23 52 -5 6 -14
29 -21 51 -7 22 -18 49 -25 60 -6 11 -18 38 -24 60 -7 22 -21 58 -31 80 -39
86 -63 153 -76 213 -8 34 -20 75 -28 90 -8 15 -17 50 -21 77 -4 28 -15 68 -25
90 -10 22 -23 67 -30 100 -7 33 -16 68 -21 77 -5 10 -16 64 -25 120 -8 57 -21
123 -29 148 -8 25 -19 84 -25 133 -6 48 -14 97 -19 110 -23 60 -41 422 -30
580 12 154 21 185 63 202 18 8 38 21 45 29 8 9 35 22 61 30 27 8 59 21 72 29
12 8 39 18 58 22 19 4 51 16 70 26 19 10 60 27 90 38 30 10 78 27 105 37 28 9
73 28 100 41 28 12 59 23 69 23 10 0 35 9 55 20 33 18 84 37 201 77 25 8 68
26 95 39 28 13 59 24 70 24 11 0 34 9 52 19 17 11 51 25 75 31 24 7 57 20 74
31 17 10 38 19 45 19 8 0 41 14 74 30 33 16 67 30 75 30 8 0 33 11 55 25 22
13 47 25 55 25 8 0 42 14 75 30 33 16 67 30 75 30 8 0 33 12 55 25 22 14 47
25 55 25 8 0 36 11 62 25 26 14 53 25 60 25 7 0 40 14 73 30 33 16 66 30 74
30 7 0 28 8 45 19 17 10 49 24 71 31 22 7 47 19 56 26 8 8 31 19 49 26 19 6
50 22 68 35 19 13 42 23 51 23 10 0 32 11 50 24 19 14 46 28 62 31 16 4 32 11
35 17 3 5 25 18 48 29 42 20 92 53 134 89 13 11 33 20 43 20 11 0 30 11 42 23
12 13 30 28 41 34 10 5 27 34 37 64 16 45 21 97 27 301 8 254 13 286 46 259 8
-7 18 -24 21 -39 4 -15 24 -56 45 -92 22 -36 48 -81 60 -100 11 -19 32 -53 45
-75 13 -22 34 -58 46 -80 12 -22 32 -53 45 -68 13 -16 24 -39 24 -51 0 -24
-33 -66 -52 -66 -6 0 -26 -11 -44 -25 -18 -14 -43 -30 -56 -35 -26 -12 -79
-49 -120 -83 -14 -12 -39 -32 -55 -45 -173 -139 -258 -221 -305 -293 -70 -109
-81 -134 -98 -238 -18 -100 -18 -105 0 -159 21 -62 41 -82 105 -101 33 -10 60
-10 117 -2 40 6 116 13 168 17 52 4 118 15 145 25 28 10 80 23 116 29 37 5 84
17 104 26 21 9 66 20 99 25 34 5 86 18 116 29 59 21 240 53 304 54 35 1 40 -2
48 -29 12 -40 1 -258 -17 -343 -7 -37 -19 -131 -24 -208 -6 -78 -18 -160 -26
-183 -8 -23 -19 -79 -25 -124 -5 -45 -17 -102 -25 -127 -8 -25 -21 -85 -29
-135 -7 -49 -21 -110 -29 -135 -44 -132 -59 -181 -72 -237 -7 -34 -20 -74 -28
-90 -8 -15 -18 -50 -22 -76 -4 -26 -16 -58 -26 -70 -10 -13 -21 -37 -25 -53
-4 -16 -15 -45 -25 -64 -10 -19 -32 -66 -49 -105 -53 -118 -86 -182 -116 -222
-54 -72 -173 -218 -201 -246 -37 -37 -146 -87 -207 -94 -61 -8 -102 -41 -139
-115 -38 -74 -38 -166 -1 -219 37 -54 103 -80 169 -68 27 5 133 16 235 24 102
8 232 24 290 35 58 11 115 20 128 20 12 0 48 9 80 20 31 11 88 25 126 31 38 6
92 19 121 29 30 10 80 22 112 25 32 4 79 16 105 26 25 10 70 21 100 25 29 4
76 17 104 30 28 13 60 24 71 24 11 0 41 11 66 24 25 14 63 28 84 32 21 3 54
14 73 24 19 10 76 37 125 61 50 24 101 51 114 61 13 10 31 18 40 18 16 0 93
47 121 74 55 51 164 136 176 136 8 0 19 -11 24 -25 38 -97 73 -150 158 -243
46 -49 111 -108 145 -131 34 -22 69 -47 77 -55 8 -8 32 -22 53 -32 20 -10 37
-21 37 -25 0 -5 21 -15 48 -23 26 -8 65 -24 87 -35 21 -12 46 -21 55 -21 8 0
30 -9 49 -21 19 -11 64 -25 100 -31 36 -6 88 -19 116 -30 37 -14 92 -22 210
-29 88 -5 222 -16 297 -24 173 -19 246 -19 327 0 36 9 129 22 208 30 79 8 161
19 181 24 20 6 69 15 107 21 39 6 93 22 120 34 28 13 66 27 85 31 19 4 51 16
70 26 19 10 55 25 80 33 110 35 149 50 205 78 33 17 69 38 80 48 11 10 31 24
46 31 74 41 102 63 200 160 60 59 119 128 133 155 15 27 41 76 59 109 21 37
36 82 40 114 4 33 16 68 32 91 30 44 42 122 26 172 -6 19 -27 49 -45 67 l-34
33 -191 9 c-105 5 -212 14 -238 20 -26 5 -95 16 -153 25 -58 8 -125 21 -150
29 -25 8 -70 20 -100 26 -30 6 -65 18 -77 26 -12 8 -49 21 -83 29 -33 8 -71
20 -83 28 -12 7 -39 19 -59 25 -20 7 -42 18 -48 26 -6 8 -28 19 -48 26 -20 6
-46 19 -57 29 -11 10 -32 20 -46 23 -23 6 -45 21 -124 82 -11 8 -45 33 -75 55
-30 22 -74 56 -97 76 -62 52 -221 215 -241 246 -9 15 -45 63 -79 107 -34 43
-70 94 -80 112 -10 18 -30 53 -45 78 -15 25 -33 57 -40 71 -7 14 -23 40 -35
59 -13 19 -23 41 -23 50 0 9 -11 39 -25 66 -13 28 -25 57 -25 65 0 8 -11 39
-25 68 -14 30 -25 61 -25 70 0 10 -11 40 -25 67 -13 28 -25 56 -25 64 0 7 -11
39 -24 70 -29 68 -72 251 -81 346 -4 39 -14 97 -22 130 -15 57 -32 171 -52
350 -5 44 -13 224 -16 400 -6 273 -5 334 9 415 9 52 23 178 31 280 7 102 18
205 24 230 5 25 15 90 21 145 6 55 19 127 30 160 10 33 22 85 26 115 3 30 15
82 25 115 9 33 20 83 24 110 3 28 15 79 25 115 10 36 23 93 29 127 5 34 16 72
24 85 8 13 20 48 27 78 7 30 18 64 25 75 6 11 18 45 25 75 7 30 19 65 26 77 8
12 19 46 25 75 6 29 19 69 29 88 9 19 21 53 24 75 4 21 16 56 27 77 10 20 19
43 19 50 0 7 14 40 30 73 16 33 30 65 30 71 0 6 8 22 19 35 10 13 22 38 25 56
4 18 15 42 25 55 10 13 22 37 25 55 4 18 16 43 26 56 10 13 22 37 26 53 4 16
15 40 24 54 10 14 21 36 25 50 4 14 18 45 31 70 13 25 24 50 24 56 0 6 10 24
22 39 12 16 29 41 38 56 26 47 60 102 90 149 16 25 41 65 55 90 33 58 65 110
89 146 53 79 66 101 66 108 0 6 80 105 183 227 12 14 33 41 47 59 14 17 30 37
36 44 6 6 55 63 108 126 97 113 108 125 174 178 18 15 46 38 61 52 15 14 43
36 61 50 39 30 167 137 197 165 37 35 173 125 189 125 6 0 24 10 39 21 34 28
155 89 175 89 8 0 29 8 45 18 41 25 206 78 285 92 35 7 72 16 81 21 10 5 88
15 174 22 l157 14 25 31 c13 18 31 32 39 32 11 0 14 18 14 88 0 80 -2 88 -22
97 -25 11 -62 73 -78 127 -7 25 -24 47 -53 68 -40 30 -45 32 -112 27 -38 -3
-90 -13 -115 -22 -25 -9 -79 -20 -120 -26 -41 -5 -93 -18 -115 -29 -22 -11
-56 -27 -75 -35 -19 -8 -48 -23 -65 -32 -16 -8 -41 -21 -55 -28 -14 -6 -34
-17 -45 -23 -11 -6 -36 -19 -55 -27 -19 -9 -51 -26 -70 -38 -20 -12 -50 -31
-69 -42 -18 -11 -49 -32 -68 -47 -19 -15 -43 -30 -54 -33 -10 -4 -19 -10 -19
-15 0 -4 -15 -15 -32 -24 -30 -16 -46 -26 -133 -86 -16 -12 -57 -39 -90 -60
-33 -22 -71 -48 -85 -57 -14 -9 -61 -40 -105 -68 -44 -29 -93 -60 -109 -71
-41 -27 -94 -59 -141 -85 -22 -12 -51 -29 -65 -39 -71 -48 -108 -69 -142 -79
-20 -7 -42 -19 -48 -27 -7 -7 -20 -14 -30 -14 -10 0 -44 -13 -75 -30 -31 -16
-62 -30 -69 -30 -6 0 -31 -11 -56 -24 -31 -16 -70 -25 -125 -30 -44 -4 -117
-14 -162 -23 -79 -16 -83 -16 -185 6 -56 13 -113 28 -124 35 -22 11 -62 61
-119 146 -16 25 -52 75 -80 112 -68 92 -94 134 -101 166 -4 15 -18 48 -31 73
l-24 46 22 66 c20 63 21 67 4 99 -9 18 -19 58 -22 88 -4 46 -12 62 -44 99 -34
38 -46 45 -89 49 -63 6 -96 -9 -137 -60 -28 -33 -33 -49 -33 -92 0 -28 -7 -82
-15 -121 -11 -51 -14 -99 -9 -175 3 -58 1 -154 -5 -215 -29 -283 -41 -374 -55
-420 -8 -27 -18 -72 -22 -100 -3 -27 -12 -61 -19 -75 -7 -14 -18 -52 -25 -85
-6 -33 -20 -75 -31 -93 -10 -18 -19 -39 -19 -46 0 -7 -11 -33 -23 -57 -13 -24
-29 -60 -36 -79 -6 -19 -27 -55 -46 -80 -19 -25 -47 -63 -61 -84 -35 -53 -118
-131 -155 -146 -16 -7 -29 -16 -29 -20 0 -5 -26 -23 -57 -40 -44 -24 -75 -33
-130 -37 -67 -5 -74 -4 -103 21 -26 22 -41 26 -91 26 -55 0 -63 -3 -101 -38
-37 -35 -42 -45 -46 -94 -4 -57 12 -128 29 -128 5 0 19 -19 29 -42 11 -24 50
-77 87 -119 38 -41 80 -100 94 -130 102 -208 129 -267 129 -278 0 -6 7 -26 16
-42 8 -17 21 -65 29 -107 7 -42 21 -95 31 -117 24 -57 36 -365 19 -495 -14
-112 -47 -228 -74 -261 -10 -14 -26 -41 -34 -61 -19 -45 -122 -149 -175 -177
-13 -7 -32 -21 -41 -30 -22 -22 -153 -44 -185 -31 -30 11 -42 28 -55 75 -6 22
-20 58 -31 80 -11 21 -20 51 -20 66 0 14 -9 61 -20 105 -11 43 -25 119 -30
169 -6 49 -17 110 -25 135 -8 25 -19 87 -25 139 -6 51 -19 128 -29 170 -11 42
-22 135 -26 206 -4 72 -13 168 -21 215 -7 47 -18 166 -24 265 -6 99 -15 209
-20 245 -14 98 -30 383 -34 585 -2 99 -7 187 -11 195 -4 8 -25 31 -48 50 -38
34 -43 35 -112 33 -84 -2 -289 -48 -325 -73 -14 -10 -36 -21 -50 -25 -29 -8
-123 -60 -160 -87 -44 -32 -164 -128 -185 -146 -54 -48 -215 -232 -250 -286
-22 -34 -48 -73 -58 -86 -10 -14 -34 -50 -53 -80 -46 -74 -54 -86 -91 -137
-18 -24 -33 -46 -33 -50 0 -3 -11 -21 -25 -39 -14 -18 -25 -37 -25 -42 0 -5
-7 -15 -15 -22 -8 -6 -35 -53 -61 -103 -25 -51 -70 -137 -100 -192 -29 -55
-60 -116 -69 -135 -8 -19 -20 -42 -25 -50 -6 -8 -22 -37 -36 -65 -24 -48 -37
-74 -69 -132 -8 -16 -22 -44 -30 -63 -9 -19 -20 -42 -25 -50 -6 -8 -17 -31
-25 -50 -9 -19 -20 -42 -25 -50 -5 -8 -39 -76 -75 -150 -37 -74 -70 -142 -76
-150 -5 -8 -20 -35 -35 -60 -14 -25 -36 -63 -49 -85 -13 -22 -37 -62 -52 -89
-15 -26 -39 -68 -53 -92 -85 -147 -109 -186 -156 -249 -93 -123 -116 -148
-214 -235 -78 -69 -135 -98 -167 -86 -15 6 -15 26 -9 204 3 108 11 238 16 287
6 50 15 149 21 220 5 72 17 159 25 194 8 35 19 120 25 190 6 70 18 148 28 176
10 28 22 72 26 99 4 28 15 70 25 95 9 25 21 68 25 95 4 28 15 70 25 95 10 25
21 70 25 100 8 56 22 92 125 316 10 22 29 65 43 95 50 113 109 226 138 265 16
22 37 51 46 65 9 14 24 33 32 42 16 17 40 49 101 133 77 107 131 166 207 230
45 39 82 73 83 77 0 4 17 17 38 28 20 11 48 28 62 38 14 11 45 32 70 47 25 16
61 38 80 51 19 12 46 25 60 29 14 4 32 13 40 20 8 7 33 18 55 25 22 7 51 21
65 31 14 11 49 23 77 29 29 5 63 16 75 24 13 8 48 19 80 25 31 5 73 17 93 25
20 9 92 22 160 31 68 8 135 19 149 25 14 5 81 12 148 15 290 13 283 12 328 57
l40 40 0 87 c0 85 -1 88 -32 118 -39 36 -118 83 -140 83 -26 0 -116 125 -130
180 -5 19 -18 53 -28 75 -10 22 -31 94 -46 160 -22 97 -28 152 -32 292 -5 202
8 311 48 399 28 63 43 74 101 74 59 0 149 113 149 187 0 48 -44 126 -89 158
-44 30 -82 31 -173 5 -43 -13 -59 -12 -170 10 -68 13 -136 29 -151 37 -16 8
-62 21 -102 28 -41 8 -91 24 -112 35 -21 11 -45 20 -54 20 -9 0 -37 11 -63 25
-26 14 -55 25 -65 25 -10 0 -39 11 -64 24 -25 14 -62 28 -81 31 -19 4 -49 18
-67 31 -18 13 -40 24 -49 24 -9 0 -31 11 -49 24 -19 14 -46 28 -62 31 -16 4
-31 10 -34 15 -3 4 -44 27 -92 51 -75 37 -161 87 -198 117 -26 21 -123 82
-130 82 -4 0 -23 14 -42 30 -18 17 -39 30 -45 30 -7 0 -21 9 -33 20 -32 31
-83 78 -185 170 -51 47 -97 90 -102 95 -23 28 -75 102 -81 115 -4 8 -23 35
-42 60 -65 84 -96 156 -110 255 -17 121 -41 168 -105 200 -28 14 -50 30 -50
35 0 6 -7 10 -15 10 -8 0 -15 -6 -15 -14 0 -8 -22 -22 -52 -32 -29 -9 -65 -29
-80 -44 -34 -34 -73 -130 -82 -199 -7 -55 -22 -83 -83 -155 -35 -41 -116 -96
-144 -96 -9 0 -28 -9 -42 -20 -15 -12 -60 -27 -104 -35 -43 -8 -103 -22 -133
-30 -65 -18 -272 -12 -331 10 -19 7 -60 18 -90 23 -70 13 -136 56 -160 104
-35 68 -75 105 -122 112 -62 9 -100 -6 -157 -63 -28 -28 -54 -51 -58 -51 -4 0
-18 -16 -31 -35 -23 -35 -24 -42 -28 -283 -2 -140 -10 -290 -18 -347 -8 -55
-20 -145 -26 -200 -6 -59 -20 -125 -35 -161 -13 -33 -24 -65 -24 -70 0 -15
-68 -92 -93 -106 -12 -7 -53 -15 -92 -19 -67 -6 -71 -8 -112 -53 -70 -77 -70
-145 0 -222 l42 -45 170 -10 c94 -5 190 -16 215 -24 25 -8 79 -19 120 -24 57
-8 79 -15 93 -32 46 -57 13 -69 -238 -81 -174 -8 -206 -12 -245 -31 -25 -12
-47 -26 -49 -31 -2 -5 -17 -23 -34 -40 l-29 -31 6 -100 c3 -55 12 -123 20
-152 8 -29 17 -80 21 -114 6 -47 23 -92 78 -201 68 -135 75 -145 191 -263 67
-68 139 -135 161 -149 22 -14 69 -48 105 -76 36 -27 74 -57 85 -65 11 -8 38
-30 61 -48 23 -17 60 -45 83 -62 60 -42 151 -133 181 -180 25 -39 25 -44 25
-240 0 -177 -2 -208 -22 -270 -23 -74 -43 -153 -72 -275 -9 -42 -25 -87 -34
-100 -9 -14 -17 -34 -17 -45 0 -11 -9 -39 -21 -60 -11 -22 -27 -62 -36 -90 -8
-27 -19 -55 -24 -61 -5 -6 -16 -32 -23 -59 -8 -26 -21 -54 -29 -63 -8 -10 -20
-34 -26 -54 -7 -21 -17 -40 -22 -43 -5 -4 -29 -47 -55 -98 -63 -128 -87 -169
-179 -302 -44 -65 -84 -124 -90 -133 -47 -77 -298 -337 -370 -383 -33 -21 -69
-45 -80 -54 -67 -52 -129 -83 -181 -89 -31 -3 -69 -13 -84 -21 -38 -19 -83
-19 -122 1 -16 9 -54 18 -84 21 -51 5 -112 36 -179 88 -11 9 -47 33 -81 55
-69 43 -364 348 -364 376 0 4 -8 16 -17 26 -10 11 -26 34 -38 53 -11 18 -42
65 -70 105 -59 85 -87 134 -149 257 -25 51 -50 94 -55 98 -5 3 -15 22 -22 43
-6 20 -18 44 -26 54 -8 9 -21 37 -29 63 -7 27 -18 53 -23 59 -5 6 -16 34 -24
61 -9 28 -25 68 -36 90 -12 21 -21 48 -21 58 0 11 -9 34 -19 51 -11 17 -24 58
-30 91 -5 33 -16 76 -25 96 -8 20 -20 67 -26 104 -6 37 -18 82 -28 99 -14 26
-17 63 -17 241 0 207 0 211 25 250 30 47 121 138 181 180 23 17 60 45 83 62
23 18 50 40 61 48 11 8 49 38 85 65 36 28 83 62 105 76 22 14 94 81 161 149
116 118 123 128 191 263 55 109 72 154 78 201 4 34 13 85 21 114 8 29 17 97
20 152 6 98 6 101 -20 128 -14 15 -26 32 -26 36 0 5 -24 20 -52 34 -48 23 -70
26 -253 35 -251 12 -284 24 -237 81 13 17 35 24 92 32 41 5 95 16 120 24 25 8
122 19 215 24 l170 10 42 46 c70 76 70 144 -1 221 -40 45 -44 47 -111 53 -39
4 -80 12 -92 19 -25 14 -93 91 -93 106 0 5 -11 37 -24 70 -16 41 -30 108 -41
205 -9 80 -19 150 -23 155 -3 6 -9 142 -12 302 -5 289 -5 291 -30 327 -14 20
-28 37 -32 37 -4 0 -30 23 -58 51 -57 57 -95 72 -157 63 -47 -7 -87 -44 -122
-112 -24 -48 -90 -91 -160 -104 -30 -5 -71 -16 -90 -23 -59 -22 -266 -28 -331
-10 -30 8 -90 22 -133 30 -44 8 -89 23 -104 35 -14 11 -33 20 -42 20 -27 0
-105 53 -142 95 -61 69 -78 100 -85 156 -9 70 -49 167 -82 200 -15 14 -51 34
-79 43 -31 10 -53 24 -53 32 0 8 -7 14 -15 14 -8 0 -15 -4 -15 -10z m148 -699
c52 -51 94 -83 119 -91 21 -7 49 -21 62 -31 13 -11 29 -19 36 -19 7 0 34 -12
61 -26 29 -16 77 -30 119 -35 39 -5 93 -17 120 -27 73 -25 400 -25 463 1 24 9
75 22 115 27 49 7 84 19 109 37 58 39 64 28 71 -134 3 -76 13 -185 21 -243 8
-58 20 -145 26 -194 6 -49 18 -102 25 -117 8 -15 17 -45 21 -68 4 -22 17 -55
30 -72 34 -46 26 -58 -54 -74 -42 -9 -137 -46 -227 -90 -71 -35 -125 -84 -179
-163 -28 -41 -29 -44 -24 -146 6 -133 10 -139 169 -247 31 -21 73 -40 99 -44
25 -4 68 -16 95 -27 35 -14 84 -22 164 -26 141 -6 157 -16 147 -94 -8 -55 -49
-148 -104 -230 -23 -34 -129 -146 -168 -176 -76 -59 -117 -90 -161 -122 -26
-19 -73 -55 -104 -80 -31 -25 -85 -65 -120 -90 -63 -45 -159 -136 -191 -181
-10 -13 -29 -40 -43 -59 -39 -55 -76 -140 -85 -197 -5 -29 -14 -62 -20 -74
-28 -50 -30 -80 -10 -136 12 -35 21 -98 26 -176 4 -76 13 -139 24 -167 10 -25
23 -76 29 -114 7 -38 18 -81 26 -96 8 -15 17 -51 21 -81 3 -30 17 -77 30 -105
13 -28 24 -57 24 -65 0 -8 11 -36 25 -64 13 -27 25 -57 25 -65 0 -8 11 -37 25
-65 13 -27 25 -56 25 -63 0 -13 53 -134 70 -162 5 -8 30 -56 55 -107 25 -51
49 -94 54 -98 5 -3 15 -22 21 -41 7 -20 22 -52 34 -70 11 -18 36 -56 54 -86
18 -29 49 -73 67 -98 19 -25 44 -61 54 -80 52 -92 130 -183 326 -383 107 -108
148 -141 280 -222 18 -11 39 -26 47 -32 41 -34 130 -72 194 -82 39 -6 91 -20
115 -31 59 -27 159 -27 218 0 24 11 76 25 115 31 64 10 153 48 194 82 8 6 29
21 47 32 132 81 174 114 285 227 183 184 269 286 321 378 10 19 35 55 54 80
18 25 49 69 67 98 18 30 43 68 54 86 12 18 27 50 34 70 6 19 16 38 21 41 5 4
29 47 54 98 25 51 50 99 55 107 17 28 70 149 70 162 0 7 12 36 25 63 14 28 25
57 25 65 0 8 8 31 19 50 10 19 24 53 31 75 6 22 20 58 30 80 10 22 21 64 25
94 3 30 12 66 20 81 8 15 19 58 26 96 6 38 19 89 29 114 11 28 20 91 24 167 5
78 14 141 26 176 20 56 18 86 -10 136 -6 12 -15 45 -20 74 -9 57 -46 142 -85
197 -14 19 -33 46 -43 59 -32 45 -128 136 -191 181 -35 25 -89 65 -120 90 -31
25 -78 61 -104 80 -44 32 -85 63 -161 122 -39 30 -145 142 -168 176 -55 82
-96 175 -104 230 -10 78 6 88 147 94 80 4 129 12 164 26 28 11 70 23 95 27 38
6 106 42 169 90 40 30 90 92 95 118 3 16 6 66 6 111 0 90 -14 120 -96 205 -52
56 -238 145 -353 170 -52 11 -66 28 -45 56 34 47 82 208 90 305 3 41 12 113
20 160 8 47 17 151 21 233 7 172 13 184 71 144 25 -18 60 -30 109 -37 40 -5
91 -18 115 -27 63 -26 390 -26 463 -1 28 10 82 22 120 27 42 5 90 19 119 35
27 14 54 26 61 26 7 0 23 8 36 19 13 10 41 24 62 31 25 8 67 40 119 92 89 87
111 94 145 40 10 -15 39 -55 65 -89 27 -34 48 -66 48 -69 0 -9 102 -128 113
-133 5 -2 21 -15 36 -30 36 -34 186 -169 232 -209 20 -18 41 -32 47 -32 6 0
21 -9 34 -20 12 -11 48 -36 78 -55 30 -19 69 -43 85 -55 31 -22 71 -48 134
-87 20 -12 86 -47 146 -78 61 -30 117 -60 125 -65 8 -5 31 -16 50 -25 19 -8
42 -19 50 -24 31 -19 149 -71 163 -71 8 0 34 -11 59 -24 25 -13 60 -27 79 -31
19 -4 49 -16 67 -26 18 -10 54 -24 80 -30 26 -7 58 -18 72 -26 14 -7 57 -20
95 -27 78 -16 171 -48 187 -64 8 -8 5 -32 -10 -84 -28 -96 -42 -215 -42 -358
0 -147 16 -331 34 -395 8 -27 20 -79 26 -115 6 -36 18 -75 25 -87 8 -11 20
-43 26 -70 7 -26 23 -70 37 -96 20 -40 23 -52 14 -72 -13 -29 -48 -39 -192
-55 -57 -6 -120 -18 -140 -26 -19 -9 -56 -19 -82 -24 -27 -5 -67 -18 -90 -29
-24 -10 -63 -22 -88 -26 -25 -4 -55 -14 -68 -22 -13 -8 -41 -21 -63 -28 -22
-8 -52 -23 -67 -33 -15 -11 -40 -22 -56 -26 -17 -4 -42 -16 -56 -26 -14 -10
-38 -22 -52 -25 -14 -4 -36 -18 -49 -31 -12 -13 -27 -24 -32 -24 -11 0 -115
-67 -135 -87 -7 -7 -18 -13 -23 -13 -12 0 -147 -118 -234 -205 -61 -61 -170
-193 -200 -244 -14 -23 -68 -94 -81 -106 -5 -5 -26 -32 -45 -58 -19 -27 -44
-61 -56 -77 -13 -15 -23 -32 -23 -37 0 -5 -11 -24 -25 -43 -14 -19 -25 -40
-25 -48 0 -7 -14 -43 -31 -80 -18 -37 -43 -92 -56 -122 -14 -30 -33 -73 -43
-95 -60 -128 -81 -178 -104 -247 -14 -42 -26 -88 -26 -102 0 -14 -9 -49 -20
-78 -11 -29 -25 -82 -30 -117 -6 -35 -17 -76 -25 -91 -8 -15 -19 -57 -25 -93
-5 -35 -17 -81 -26 -102 -8 -21 -20 -94 -25 -164 -6 -69 -17 -155 -25 -190 -8
-35 -19 -120 -25 -190 -5 -69 -14 -148 -19 -176 -15 -76 -30 -385 -30 -624 0
-213 0 -213 25 -245 33 -41 34 -42 79 -76 35 -27 46 -30 111 -30 83 0 247 44
291 79 15 11 32 21 40 21 7 0 26 11 42 25 17 14 35 25 42 25 14 0 226 211 261
259 13 19 34 47 47 62 12 15 22 31 22 36 0 6 9 18 21 29 12 10 30 35 40 54 11
19 31 53 44 75 13 22 35 60 50 85 14 25 37 65 52 90 14 25 33 59 42 75 9 17
25 43 35 58 26 39 33 52 179 340 70 138 132 259 137 267 5 8 28 53 50 100 23
47 66 130 95 185 30 55 74 141 100 190 26 50 61 118 79 152 18 34 80 133 137
220 58 87 113 169 122 183 124 189 229 306 371 415 90 69 78 62 179 110 68 32
81 36 93 23 11 -10 17 -69 24 -240 6 -124 15 -250 20 -279 6 -30 15 -135 21
-234 5 -99 16 -224 24 -279 9 -54 20 -167 26 -250 6 -83 15 -169 21 -191 17
-70 37 -179 38 -211 0 -16 9 -64 19 -105 11 -41 24 -114 30 -164 6 -49 17
-110 25 -135 7 -25 17 -74 21 -110 4 -36 15 -78 24 -95 10 -16 23 -50 29 -75
6 -25 20 -63 32 -85 11 -21 20 -48 20 -60 0 -11 12 -38 25 -60 14 -22 25 -49
25 -60 0 -12 18 -39 40 -60 l41 -40 107 0 c94 0 111 3 144 23 24 15 62 26 110
31 52 6 85 16 113 34 163 107 291 210 313 252 39 76 116 211 128 225 7 9 20
45 28 80 8 36 21 94 29 130 33 137 37 213 26 433 -8 172 -15 227 -34 292 -13
44 -31 109 -40 145 -35 141 -43 167 -69 214 -14 27 -26 54 -26 61 0 7 -8 23
-18 36 -11 13 -22 37 -26 53 -4 16 -16 40 -26 54 -25 31 -36 88 -21 106 7 8
24 17 39 21 32 8 100 49 147 88 18 15 35 27 38 27 14 0 109 72 134 101 33 40
82 104 105 139 10 14 31 43 47 65 31 41 101 176 101 194 0 6 11 31 25 57 14
26 25 53 25 60 0 7 9 28 19 46 11 18 24 60 30 94 6 33 20 86 31 117 11 31 20
66 20 78 0 19 10 62 51 222 5 20 15 37 22 37 7 0 26 -21 42 -47 17 -26 37 -57
45 -68 8 -12 24 -35 35 -51 32 -46 67 -73 110 -85 22 -6 51 -18 64 -26 27 -17
276 -73 325 -73 17 0 66 9 109 19 43 11 120 23 170 27 65 4 107 14 143 30 60
28 94 31 94 8 0 -9 -29 -51 -65 -94 -36 -43 -65 -82 -65 -87 0 -5 -13 -27 -30
-49 -16 -21 -30 -44 -30 -51 0 -6 -6 -18 -14 -25 -7 -8 -23 -32 -35 -54 -12
-21 -35 -59 -51 -84 -16 -25 -39 -61 -50 -80 -11 -19 -34 -55 -50 -80 -32 -48
-61 -97 -88 -145 -9 -16 -26 -46 -38 -65 -11 -19 -24 -48 -28 -64 -4 -17 -16
-42 -27 -57 -10 -15 -19 -32 -19 -39 0 -7 -11 -33 -24 -59 -14 -25 -36 -71
-49 -101 -102 -225 -145 -318 -166 -360 -10 -19 -21 -53 -25 -75 -4 -22 -14
-50 -22 -62 -8 -12 -19 -46 -25 -75 -6 -29 -17 -63 -25 -75 -8 -12 -19 -46
-25 -75 -6 -29 -17 -63 -25 -75 -8 -12 -19 -46 -25 -75 -6 -29 -19 -69 -29
-88 -9 -19 -21 -53 -24 -75 -4 -21 -16 -55 -26 -75 -10 -19 -21 -62 -25 -95
-5 -33 -16 -83 -26 -112 -9 -28 -21 -78 -24 -110 -4 -32 -16 -85 -26 -118 -9
-33 -22 -93 -28 -133 -6 -41 -18 -89 -25 -107 -8 -18 -19 -75 -26 -126 -6 -52
-17 -128 -25 -170 -8 -41 -19 -151 -25 -244 -6 -93 -18 -203 -25 -243 -8 -41
-17 -113 -20 -161 -9 -124 11 -819 24 -861 6 -19 16 -78 21 -130 6 -52 17
-118 25 -145 8 -28 19 -93 25 -144 6 -52 19 -128 30 -169 11 -42 20 -87 20
-101 0 -14 11 -49 24 -77 13 -28 27 -66 31 -85 4 -19 15 -50 25 -69 10 -19 25
-56 34 -82 9 -27 23 -69 32 -95 9 -27 24 -64 34 -83 10 -19 21 -51 25 -70 10
-46 99 -226 129 -259 7 -9 21 -32 30 -51 66 -143 370 -505 521 -620 26 -19 61
-47 80 -62 18 -16 37 -28 43 -28 5 0 16 -7 23 -16 25 -30 145 -105 229 -145
25 -11 52 -26 60 -34 8 -7 26 -16 40 -20 14 -4 41 -17 60 -30 19 -13 51 -26
70 -30 19 -4 45 -13 56 -20 12 -8 50 -21 85 -30 35 -9 70 -22 77 -28 7 -6 48
-18 90 -28 42 -9 106 -24 142 -32 36 -9 99 -20 140 -26 41 -6 98 -15 125 -21
28 -5 76 -13 108 -16 70 -7 78 -20 47 -77 -23 -42 -177 -207 -193 -207 -5 0
-21 -9 -35 -21 -74 -56 -171 -104 -272 -134 -25 -7 -65 -22 -90 -34 -25 -11
-53 -21 -63 -21 -10 0 -39 -11 -66 -24 -26 -14 -86 -32 -132 -40 -46 -9 -104
-20 -129 -25 -25 -5 -103 -14 -174 -20 -70 -6 -132 -13 -136 -16 -30 -19 -115
-22 -230 -9 -69 7 -206 18 -305 23 -141 7 -191 13 -231 29 -27 11 -72 23 -100
27 -27 4 -69 18 -94 31 -25 12 -58 26 -75 30 -16 4 -42 15 -57 25 -14 11 -31
19 -36 19 -6 0 -23 11 -39 24 -15 13 -42 31 -60 40 -44 22 -189 166 -198 196
-4 14 -16 36 -26 49 -29 36 -63 162 -74 276 -7 66 -10 73 -55 118 l-47 47 -69
0 c-57 0 -76 -4 -106 -25 -20 -14 -42 -25 -47 -25 -18 0 -63 -81 -78 -140 -16
-58 -25 -70 -142 -170 -70 -60 -74 -63 -217 -134 -55 -27 -110 -57 -124 -67
-14 -9 -43 -21 -65 -25 -22 -4 -62 -18 -90 -30 -27 -13 -58 -24 -68 -24 -10 0
-39 -11 -65 -24 -26 -13 -69 -27 -97 -31 -27 -4 -65 -13 -83 -21 -19 -7 -73
-21 -122 -29 -49 -8 -103 -22 -122 -29 -18 -8 -67 -19 -108 -25 -41 -7 -100
-21 -131 -32 -57 -21 -140 -23 -146 -3 -2 5 15 30 37 55 23 24 48 56 56 72 8
15 18 27 22 27 8 0 54 89 102 195 42 94 78 170 106 226 13 26 24 53 24 61 0 7
8 29 19 48 10 20 24 62 31 95 7 33 19 72 27 88 7 15 19 53 24 85 6 31 17 69
25 85 8 15 20 53 25 85 6 31 17 69 25 84 8 15 19 62 25 105 5 43 19 110 29
148 10 39 22 99 26 135 3 35 13 83 21 105 8 22 21 110 29 195 7 85 20 187 29
225 10 51 15 133 15 299 0 206 -2 232 -19 260 -10 17 -22 48 -25 68 -4 23 -22
53 -47 80 l-40 43 -107 -1 c-114 -1 -444 -54 -492 -79 -14 -7 -58 -18 -98 -24
-39 -6 -89 -18 -110 -26 -20 -8 -72 -21 -114 -29 -42 -8 -91 -22 -108 -31 -30
-16 -80 -14 -80 3 1 15 264 233 329 272 23 14 57 35 74 47 18 12 43 27 56 33
13 6 37 22 53 35 16 14 35 25 43 25 7 0 18 7 26 16 19 23 99 61 145 70 67 12
94 31 120 87 29 63 29 72 4 130 -22 49 -96 108 -154 121 -45 11 -156 104 -156
132 0 5 -12 26 -26 45 -14 19 -32 48 -40 64 -8 17 -27 50 -44 75 -16 25 -39
63 -50 85 -11 22 -27 51 -35 65 -7 14 -28 57 -46 95 -17 39 -36 77 -41 85 -4
8 -15 31 -24 50 -80 183 -154 286 -247 343 -84 51 -145 32 -237 -75 l-32 -38
-9 -422 c-11 -536 -9 -522 -64 -573 -60 -57 -95 -80 -137 -94 -20 -7 -42 -18
-48 -26 -6 -8 -33 -21 -60 -30 -27 -9 -54 -22 -60 -30 -6 -8 -24 -16 -39 -20
-16 -3 -43 -17 -62 -31 -18 -13 -40 -24 -48 -24 -9 0 -34 -11 -56 -25 -22 -13
-47 -25 -55 -25 -8 0 -42 -14 -75 -30 -33 -16 -67 -30 -75 -30 -8 0 -33 -11
-55 -25 -22 -13 -48 -25 -58 -25 -9 0 -43 -13 -74 -30 -31 -16 -62 -30 -69
-30 -7 0 -34 -11 -60 -25 -26 -14 -54 -25 -62 -25 -8 0 -29 -8 -46 -19 -17
-10 -49 -24 -71 -31 -22 -7 -60 -24 -84 -37 -24 -12 -51 -23 -60 -23 -9 0 -27
-7 -39 -16 -12 -8 -46 -23 -75 -33 -30 -11 -62 -24 -73 -30 -10 -6 -44 -19
-74 -30 -133 -46 -158 -55 -205 -78 -28 -12 -57 -23 -66 -23 -8 0 -33 -9 -54
-20 -22 -12 -60 -26 -85 -32 -25 -6 -58 -19 -75 -28 -16 -10 -46 -21 -65 -25
-19 -4 -55 -18 -80 -31 -25 -13 -54 -24 -65 -24 -11 0 -35 -9 -53 -20 -17 -11
-53 -25 -80 -31 -26 -7 -60 -20 -77 -29 -16 -10 -46 -21 -65 -25 -19 -4 -55
-18 -80 -31 -25 -13 -56 -24 -70 -24 -14 0 -43 -12 -65 -25 -22 -14 -48 -25
-57 -25 -27 0 -79 -51 -99 -98 -13 -29 -19 -68 -19 -115 0 -40 -7 -144 -15
-232 -8 -87 -12 -177 -9 -200 2 -22 9 -123 14 -225 6 -102 17 -210 25 -240 8
-30 17 -82 21 -115 3 -33 14 -89 25 -125 10 -36 23 -105 29 -153 6 -49 17
-105 25 -125 7 -20 19 -64 26 -97 6 -33 17 -71 24 -85 7 -14 18 -51 25 -83 6
-33 20 -78 31 -100 10 -23 19 -53 19 -67 0 -26 65 -227 79 -245 5 -5 15 -30
24 -55 8 -25 32 -83 52 -130 20 -47 41 -98 47 -115 17 -52 61 -139 85 -168 13
-16 23 -33 23 -39 0 -5 10 -23 23 -38 12 -16 35 -50 51 -77 71 -117 100 -155
168 -217 40 -36 77 -66 84 -66 6 0 33 -12 60 -26 33 -17 73 -28 126 -34 43 -4
89 -15 103 -24 13 -9 48 -21 77 -27 29 -6 69 -19 88 -29 19 -10 60 -21 90 -25
30 -4 78 -16 105 -26 28 -10 81 -23 119 -29 38 -6 81 -17 96 -25 16 -8 61 -20
102 -26 40 -6 93 -19 118 -29 25 -9 68 -20 95 -24 28 -4 82 -18 122 -32 39
-13 83 -24 97 -24 15 0 53 -9 86 -20 33 -11 95 -25 137 -31 43 -5 105 -18 138
-29 33 -10 87 -22 120 -25 33 -4 90 -15 126 -26 37 -10 102 -24 145 -29 44 -6
97 -17 119 -24 22 -8 61 -19 88 -26 86 -23 76 -44 -31 -60 -41 -7 -93 -20
-115 -31 -23 -10 -55 -19 -72 -19 -16 0 -61 -12 -100 -25 -38 -14 -95 -29
-126 -35 -30 -6 -73 -19 -94 -30 -22 -11 -45 -20 -51 -20 -7 0 -38 -13 -69
-30 -31 -16 -63 -30 -70 -30 -8 0 -35 -11 -61 -25 -26 -14 -54 -25 -63 -25 -9
0 -34 -12 -56 -25 -22 -14 -47 -25 -55 -25 -8 0 -36 -11 -62 -25 -26 -14 -53
-25 -60 -25 -7 0 -40 -14 -73 -30 -33 -16 -66 -30 -72 -30 -11 0 -60 -22 -143
-66 -14 -8 -44 -22 -66 -33 -23 -11 -45 -25 -49 -31 -4 -6 -26 -21 -49 -31
-22 -11 -63 -33 -91 -49 -27 -16 -69 -39 -92 -50 -23 -11 -45 -25 -48 -30 -3
-5 -25 -19 -48 -30 -80 -40 -124 -65 -142 -80 -18 -15 -68 -43 -140 -78 -22
-11 -46 -27 -54 -36 -7 -9 -19 -16 -27 -16 -7 0 -27 -12 -43 -27 -16 -16 -51
-44 -78 -63 -26 -19 -74 -55 -105 -80 -32 -25 -89 -70 -128 -100 -39 -30 -84
-66 -100 -80 -15 -14 -50 -41 -77 -60 -26 -19 -58 -44 -69 -55 -12 -11 -39
-31 -60 -45 -72 -47 -430 -412 -553 -565 -167 -207 -145 -177 -216 -291 -11
-17 -29 -45 -39 -60 -11 -16 -30 -47 -44 -69 -14 -22 -33 -51 -42 -65 -20 -30
-58 -104 -93 -180 -58 -126 -85 -187 -97 -217 -10 -26 -18 -33 -40 -33 -22 0
-30 7 -40 33 -7 17 -23 55 -35 82 -13 28 -38 82 -55 120 -39 86 -78 162 -100
195 -9 14 -28 43 -42 65 -14 22 -33 53 -44 69 -10 15 -28 43 -39 60 -71 114
-49 84 -216 291 -124 153 -468 505 -568 580 -30 22 -79 59 -110 82 -31 23 -67
51 -81 62 -61 52 -236 189 -329 258 -31 23 -69 53 -84 67 -15 14 -34 26 -41
26 -8 0 -20 7 -27 16 -8 9 -32 25 -54 36 -78 38 -123 63 -141 80 -11 9 -35 24
-54 33 -52 25 -119 62 -135 75 -16 13 -81 49 -140 78 -22 11 -46 27 -54 36 -7
9 -22 16 -31 16 -10 0 -31 11 -47 24 -15 13 -44 31 -63 40 -19 9 -46 22 -60
30 -81 42 -132 66 -143 66 -6 0 -39 14 -72 30 -33 16 -66 30 -73 30 -7 0 -34
11 -60 25 -26 14 -54 25 -62 25 -8 0 -33 11 -55 25 -22 13 -47 25 -56 25 -9 0
-37 11 -63 25 -26 14 -53 25 -61 25 -7 0 -39 14 -70 30 -31 17 -62 30 -69 30
-6 0 -29 9 -51 20 -21 11 -64 24 -94 30 -31 6 -87 21 -126 35 -38 13 -83 25
-100 25 -16 0 -50 9 -74 20 -25 12 -76 25 -115 31 -39 5 -75 14 -79 18 -14 14
0 29 36 36 17 4 57 16 87 26 30 10 91 23 134 29 44 6 107 19 140 29 34 10 92
22 130 26 37 4 93 15 123 26 30 10 85 22 122 25 36 4 99 17 139 30 40 13 84
24 98 24 14 0 58 11 97 24 40 14 95 28 122 32 28 4 70 15 95 24 25 10 78 23
118 29 41 6 86 18 102 26 15 8 58 19 96 25 38 6 92 19 119 29 28 10 75 22 105
26 30 4 71 15 90 25 19 10 59 23 88 29 29 6 64 18 77 27 14 9 60 20 103 24 53
6 93 17 126 34 27 14 54 26 60 26 7 0 44 30 84 66 68 62 97 100 168 217 16 27
39 61 52 77 12 15 22 33 22 38 0 6 10 23 23 39 26 31 87 152 87 172 0 7 8 26
17 44 9 18 25 52 34 77 37 99 60 156 70 174 18 31 59 157 78 236 9 41 23 85
29 97 7 13 17 49 23 80 6 32 17 70 25 86 8 15 19 53 25 85 5 31 16 74 24 94 8
20 19 76 25 125 6 48 19 117 30 153 10 36 21 92 25 125 4 33 13 85 21 116 8
32 20 162 28 290 11 195 11 258 0 379 -7 80 -13 180 -13 222 -1 51 -7 91 -20
120 -20 47 -72 98 -99 98 -9 0 -35 11 -57 25 -22 13 -51 25 -65 25 -14 0 -45
11 -70 24 -25 13 -61 27 -80 31 -19 4 -48 15 -65 25 -16 9 -51 22 -77 29 -27
6 -63 20 -80 31 -18 11 -42 20 -53 20 -11 0 -40 11 -65 24 -25 13 -61 27 -80
31 -19 4 -48 15 -65 25 -16 9 -50 22 -75 28 -25 6 -63 20 -85 32 -21 11 -46
20 -54 20 -9 0 -38 11 -66 23 -47 23 -72 32 -205 78 -30 11 -64 24 -74 30 -11
6 -43 19 -73 30 -29 10 -63 25 -75 33 -12 9 -30 16 -39 16 -9 0 -36 11 -60 23
-24 13 -62 30 -84 37 -22 7 -54 21 -71 31 -17 11 -38 19 -46 19 -8 0 -36 11
-62 25 -26 14 -53 25 -60 25 -7 0 -38 14 -69 30 -31 17 -65 30 -74 30 -10 0
-36 12 -58 25 -22 14 -47 25 -55 25 -8 0 -42 14 -75 30 -33 16 -67 30 -75 30
-8 0 -33 12 -55 25 -22 14 -47 25 -56 25 -8 0 -30 11 -48 24 -19 14 -46 28
-62 31 -15 4 -33 12 -39 20 -6 8 -33 21 -60 30 -27 9 -54 22 -60 30 -6 8 -28
19 -48 26 -42 14 -77 37 -137 94 -40 37 -43 45 -49 105 -4 36 -10 251 -15 477
l-9 413 -32 37 c-92 108 -153 127 -237 76 -57 -35 -121 -99 -138 -139 -8 -17
-21 -36 -29 -43 -8 -7 -18 -25 -21 -41 -3 -16 -12 -34 -20 -40 -8 -6 -21 -33
-30 -60 -9 -27 -22 -53 -30 -60 -7 -6 -16 -26 -19 -44 -4 -19 -13 -39 -21 -46
-8 -6 -21 -34 -30 -61 -9 -27 -21 -52 -27 -55 -5 -3 -18 -25 -29 -48 -11 -22
-33 -61 -49 -86 -17 -25 -36 -58 -44 -75 -8 -16 -26 -45 -40 -64 -14 -19 -26
-40 -26 -45 0 -28 -111 -121 -156 -132 -58 -13 -132 -72 -154 -121 -25 -58
-25 -67 4 -130 26 -56 53 -75 120 -87 46 -9 126 -47 145 -70 8 -9 19 -16 26
-16 7 0 29 -13 50 -30 21 -16 43 -30 49 -30 7 0 21 -9 33 -19 11 -10 35 -27
54 -36 47 -25 79 -48 189 -138 125 -102 180 -150 180 -159 0 -17 -50 -19 -80
-3 -17 9 -66 23 -108 31 -42 8 -94 21 -114 29 -21 8 -71 20 -110 26 -40 6 -85
17 -100 25 -48 25 -374 76 -490 78 l-107 1 -40 -44 c-22 -25 -42 -58 -46 -78
-3 -19 -15 -52 -27 -74 -19 -37 -20 -51 -15 -291 4 -173 10 -273 20 -315 8
-34 18 -115 22 -180 4 -65 16 -145 26 -178 9 -33 20 -87 24 -120 3 -33 15 -89
25 -125 10 -36 23 -102 29 -148 6 -45 17 -95 25 -110 8 -15 19 -53 25 -84 5
-32 17 -70 24 -85 8 -16 20 -55 27 -88 7 -33 19 -72 27 -88 7 -15 18 -53 24
-84 6 -31 19 -72 30 -92 10 -20 19 -42 19 -49 0 -8 11 -35 24 -61 14 -25 36
-71 49 -101 14 -30 40 -86 57 -125 48 -108 94 -195 102 -195 4 0 14 -12 22
-27 8 -16 33 -47 56 -71 25 -26 39 -49 36 -58 -8 -21 -85 -18 -148 6 -29 10
-87 24 -128 31 -41 6 -90 17 -108 25 -19 7 -73 21 -122 29 -49 8 -103 22 -122
29 -18 8 -55 17 -83 21 -27 4 -71 18 -97 31 -26 13 -55 24 -65 24 -10 0 -41
11 -68 24 -28 12 -68 26 -90 30 -22 4 -51 16 -65 25 -14 10 -69 40 -124 67
-143 71 -147 74 -217 134 -115 99 -127 113 -140 165 -31 127 -113 195 -235
195 -66 0 -67 0 -114 -47 -44 -45 -47 -52 -54 -117 -11 -111 -46 -241 -75
-277 -10 -13 -22 -35 -26 -49 -9 -30 -154 -174 -198 -196 -18 -9 -45 -27 -60
-40 -16 -13 -33 -24 -39 -24 -5 0 -22 -8 -36 -19 -15 -10 -40 -21 -57 -25 -16
-4 -50 -18 -75 -30 -25 -13 -67 -27 -94 -31 -28 -4 -73 -16 -100 -27 -40 -15
-90 -22 -229 -29 -98 -5 -236 -16 -305 -23 -116 -13 -201 -10 -232 9 -4 3 -66
10 -136 16 -71 6 -149 15 -174 20 -25 5 -83 16 -129 25 -46 8 -106 26 -132 40
-27 13 -56 24 -66 24 -10 0 -38 10 -63 21 -25 12 -65 27 -90 34 -101 30 -198
78 -272 134 -14 12 -30 21 -35 21 -16 0 -170 165 -193 207 -31 57 -23 70 47
77 32 3 81 11 108 16 28 6 84 15 125 21 41 6 104 17 140 26 36 8 100 23 142
32 42 10 83 22 90 28 7 6 42 19 77 28 35 9 73 22 85 30 11 7 37 16 56 20 19 4
51 17 70 30 19 13 46 26 60 30 14 4 32 13 40 20 8 8 35 23 60 34 79 37 151 82
255 160 22 17 58 43 80 57 59 39 312 297 381 387 102 135 157 216 180 267 9
19 23 43 31 52 30 34 118 211 128 260 4 18 15 49 25 68 10 19 25 58 35 85 9
28 24 70 32 95 9 25 23 61 33 80 10 19 21 51 25 70 4 19 16 52 27 73 10 21 25
73 33 115 8 42 19 92 24 110 6 19 15 77 21 130 6 52 17 118 25 146 8 28 19 94
25 146 5 52 15 111 21 130 13 42 33 723 24 857 -3 51 -12 128 -20 170 -8 43
-19 150 -25 238 -6 88 -17 198 -25 245 -8 47 -19 123 -25 170 -6 47 -20 110
-30 140 -10 30 -21 81 -25 114 -4 32 -13 77 -21 99 -8 22 -19 72 -25 111 -6
39 -19 100 -29 136 -10 36 -23 90 -29 120 -9 55 -38 147 -72 230 -11 25 -23
67 -29 93 -6 27 -17 58 -24 70 -8 12 -19 46 -25 75 -6 29 -17 63 -25 75 -8 12
-19 46 -25 75 -6 29 -17 63 -25 75 -8 12 -18 40 -21 62 -4 22 -15 56 -25 75
-10 19 -32 67 -50 105 -17 39 -42 93 -55 120 -13 28 -35 75 -48 105 -14 30
-39 85 -56 121 -17 36 -31 69 -31 73 0 4 -9 20 -19 35 -11 15 -23 40 -27 57
-4 16 -14 40 -23 54 -9 14 -24 41 -34 60 -10 19 -31 55 -47 80 -16 25 -39 61
-50 80 -11 19 -33 54 -48 77 -59 93 -112 183 -112 191 0 5 -9 17 -20 27 -11
10 -20 24 -20 30 0 7 -13 29 -30 50 -16 21 -30 42 -30 47 0 6 -29 45 -65 88
-36 43 -65 85 -65 94 0 23 34 20 94 -8 36 -16 78 -26 143 -30 50 -4 127 -16
170 -27 43 -10 92 -19 109 -19 49 0 298 56 325 73 13 8 42 20 64 26 43 12 78
39 110 85 11 16 27 39 35 51 8 11 28 42 45 68 16 26 35 47 42 47 7 0 17 -17
22 -37 41 -160 51 -203 51 -222 0 -11 11 -53 24 -93 14 -40 27 -93 31 -118 3
-25 14 -59 25 -75 11 -17 20 -37 20 -46 0 -9 11 -37 25 -63 14 -26 25 -51 25
-57 0 -18 70 -153 101 -194 16 -22 37 -51 47 -65 55 -82 138 -177 166 -192 18
-9 38 -24 45 -32 8 -9 18 -16 23 -16 6 0 25 -12 43 -27 47 -39 115 -80 147
-88 15 -4 32 -13 39 -21 15 -18 4 -75 -21 -106 -10 -14 -22 -38 -26 -54 -4
-16 -15 -40 -24 -54 -10 -14 -21 -36 -25 -50 -4 -14 -16 -40 -27 -58 -19 -31
-26 -54 -63 -202 -9 -36 -27 -101 -40 -145 -19 -66 -26 -120 -34 -300 -7 -141
-7 -234 -1 -260 5 -22 10 -56 10 -75 0 -20 7 -63 16 -95 9 -33 22 -85 29 -115
7 -31 40 -104 76 -168 35 -62 72 -128 81 -147 22 -42 149 -145 313 -252 28
-18 61 -28 113 -34 48 -5 86 -16 110 -31 33 -20 50 -23 144 -23 l107 0 41 40
c22 21 40 48 40 60 0 11 11 38 25 60 13 22 25 49 25 60 0 11 11 43 25 70 13
28 25 57 25 65 0 8 11 38 24 65 13 28 26 78 30 110 4 33 16 92 26 130 10 39
22 104 26 145 3 41 13 95 20 120 8 25 19 86 25 135 6 50 19 124 30 165 10 41
23 143 29 225 5 83 14 175 20 205 6 30 17 156 26 280 8 124 19 250 24 280 6
30 15 156 20 280 7 170 13 227 24 238 12 13 25 9 93 -23 101 -48 89 -41 179
-110 146 -112 239 -216 373 -418 8 -12 62 -93 120 -180 57 -87 119 -186 137
-220 18 -34 53 -102 79 -152 26 -49 70 -135 100 -190 29 -55 72 -138 95 -185
22 -47 45 -92 50 -100 5 -8 67 -129 137 -267 147 -290 153 -302 179 -340 10
-15 25 -39 32 -53 7 -14 26 -47 42 -75 16 -27 41 -70 55 -95 15 -25 37 -63 50
-85 13 -22 33 -56 44 -75 10 -19 28 -44 40 -54 12 -11 21 -23 21 -29 0 -5 10
-21 23 -36 12 -15 33 -43 46 -62 35 -48 247 -259 261 -259 7 0 25 -11 42 -25
16 -14 35 -25 42 -25 8 0 25 -10 40 -21 44 -35 208 -79 292 -79 63 0 76 3 102
25 17 14 35 25 41 25 6 0 17 13 25 28 8 16 22 34 30 41 14 12 16 45 16 230 -1
245 -15 551 -29 626 -6 27 -15 107 -20 176 -6 70 -17 155 -25 190 -8 35 -19
121 -25 190 -5 70 -17 143 -25 164 -9 21 -21 67 -26 102 -6 36 -17 77 -24 92
-7 14 -19 56 -25 93 -6 36 -18 83 -27 104 -9 20 -20 65 -25 98 -10 60 -41 152
-78 231 -19 38 -40 85 -94 205 -13 30 -38 85 -56 122 -17 37 -31 73 -31 81 0
8 -9 26 -20 40 -11 14 -20 29 -20 35 0 5 -12 25 -27 45 -16 20 -44 58 -63 84
-19 26 -41 56 -50 65 -8 9 -26 33 -40 53 -73 106 -227 289 -296 351 -107 96
-164 144 -174 144 -5 0 -15 6 -22 13 -7 7 -42 32 -78 54 -36 23 -76 50 -90 61
-14 10 -36 23 -50 27 -14 4 -37 16 -52 26 -14 11 -30 19 -34 19 -9 0 -131 56
-194 89 -19 10 -55 22 -80 26 -25 4 -64 16 -88 26 -23 11 -63 24 -90 29 -26 5
-63 15 -82 24 -20 8 -83 20 -140 26 -144 16 -179 26 -192 55 -9 20 -6 32 14
72 14 26 30 70 37 96 6 27 18 59 26 70 7 12 19 51 25 87 6 36 18 88 25 115 32
112 45 429 25 595 -6 47 -20 118 -32 158 -15 52 -18 76 -10 84 16 16 108 48
187 64 39 8 84 21 100 28 17 8 49 19 73 26 23 6 57 19 75 29 17 11 47 22 66
26 19 4 54 18 79 31 25 13 51 24 59 24 14 0 132 52 163 71 8 5 31 16 50 24 19
9 42 20 50 25 8 5 65 35 125 65 61 31 126 66 146 78 63 39 103 65 134 87 17
12 55 36 85 55 30 19 66 44 78 55 13 11 28 20 34 20 6 0 27 14 47 32 46 40
196 175 232 209 15 15 31 28 36 30 11 5 113 124 113 132 0 8 99 142 129 175
11 12 27 22 35 22 8 0 50 -36 94 -79z"/>
</g>
</svg>
